<?xml version="1.0" encoding="UTF-8"?>
<svg xmlns="http://www.w3.org/2000/svg" xmlns:xlink="http://www.w3.org/1999/xlink"
     width="610.0" height="610.0" viewBox="-305 -305 610.0 610.0">
<defs>
<linearGradient x1="85.4843449266565" y1="-180.8104719657034" x2="37.44329291121322" y2="-196.46373664359814" gradientUnits="userSpaceOnUse" id="d0">
<stop offset="0" stop-color="#1f77b4" />
<stop offset="1" stop-color="#aec7e8" />
</linearGradient>
<linearGradient x1="169.8639827465027" y1="-105.57569495625323" x2="-182.87970289507106" y2="80.96304261211121" gradientUnits="userSpaceOnUse" id="d1">
<stop offset="0" stop-color="#1f77b4" />
<stop offset="1" stop-color="#ffbb78" />
</linearGradient>
<linearGradient x1="169.8639827465027" y1="-105.57569495625323" x2="-93.40149871618186" y2="176.8506715779476" gradientUnits="userSpaceOnUse" id="d2">
<stop offset="0" stop-color="#1f77b4" />
<stop offset="1" stop-color="#98df8a" />
</linearGradient>
<linearGradient x1="183.84967080305165" y1="-78.73562437429158" x2="15.347021514411875" y2="199.41030297012284" gradientUnits="userSpaceOnUse" id="d3">
<stop offset="0" stop-color="#1f77b4" />
<stop offset="1" stop-color="#d62728" />
</linearGradient>
<linearGradient x1="187.6752752567355" y1="-69.12301394838461" x2="63.150793131300155" y2="189.76822001296142" gradientUnits="userSpaceOnUse" id="d4">
<stop offset="0" stop-color="#1f77b4" />
<stop offset="1" stop-color="#9467bd" />
</linearGradient>
<linearGradient x1="193.67662294339766" y1="-49.89354392344728" x2="102.59184785316728" y2="171.68259304330354" gradientUnits="userSpaceOnUse" id="d5">
<stop offset="0" stop-color="#1f77b4" />
<stop offset="1" stop-color="#8c564b" />
</linearGradient>
<linearGradient x1="196.0807660030269" y1="-39.399659943535205" x2="169.5859328922241" y2="106.02174949072509" gradientUnits="userSpaceOnUse" id="d6">
<stop offset="0" stop-color="#1f77b4" />
<stop offset="1" stop-color="#c49c94" />
</linearGradient>
<linearGradient x1="198.98312088435196" y1="-20.14243289981085" x2="188.95392322263177" y2="65.54704340224485" gradientUnits="userSpaceOnUse" id="d7">
<stop offset="0" stop-color="#1f77b4" />
<stop offset="1" stop-color="#f7b6d2" />
</linearGradient>
<linearGradient x1="199.31258158144502" y1="-16.567885300780823" x2="193.4101555824996" y2="50.91671353841774" gradientUnits="userSpaceOnUse" id="d8">
<stop offset="0" stop-color="#1f77b4" />
<stop offset="1" stop-color="#c7c7c7" />
</linearGradient>
<linearGradient x1="199.8663503879147" y1="-7.310402356594678" x2="196.92894517381697" y2="34.9140452071626" gradientUnits="userSpaceOnUse" id="d9">
<stop offset="0" stop-color="#1f77b4" />
<stop offset="1" stop-color="#bcbd22" />
</linearGradient>
<linearGradient x1="199.92184927064957" y1="-5.590544177776296" x2="199.85594875146145" y2="7.589449825462119" gradientUnits="userSpaceOnUse" id="d10">
<stop offset="0" stop-color="#1f77b4" />
<stop offset="1" stop-color="#17becf" />
</linearGradient>
<linearGradient x1="-62.227101370227736" y1="-190.07311186766898" x2="-197.56262477535412" y2="-31.128914081166258" gradientUnits="userSpaceOnUse" id="d11">
<stop offset="0" stop-color="#aec7e8" />
<stop offset="1" stop-color="#ffbb78" />
</linearGradient>
<linearGradient x1="-34.819348681638864" y1="-196.94571068542328" x2="-93.40149871618186" y2="176.8506715779476" gradientUnits="userSpaceOnUse" id="d12">
<stop offset="0" stop-color="#aec7e8" />
<stop offset="1" stop-color="#98df8a" />
</linearGradient>
<linearGradient x1="-17.945694389441986" y1="-199.19325303051997" x2="15.347021514411875" y2="199.41030297012284" gradientUnits="userSpaceOnUse" id="d13">
<stop offset="0" stop-color="#aec7e8" />
<stop offset="1" stop-color="#d62728" />
</linearGradient>
<linearGradient x1="-17.945694389441986" y1="-199.19325303051997" x2="60.8872671216491" y2="190.5065371646258" gradientUnits="userSpaceOnUse" id="d14">
<stop offset="0" stop-color="#aec7e8" />
<stop offset="1" stop-color="#9467bd" />
</linearGradient>
<linearGradient x1="-15.573173440898834" y1="-199.39276884827012" x2="98.54855785826206" y2="174.0350014912425" gradientUnits="userSpaceOnUse" id="d15">
<stop offset="0" stop-color="#aec7e8" />
<stop offset="1" stop-color="#8c564b" />
</linearGradient>
<linearGradient x1="-10.905613208431138" y1="-199.70244765787947" x2="155.79887033850858" y2="125.40618805005035" gradientUnits="userSpaceOnUse" id="d16">
<stop offset="0" stop-color="#aec7e8" />
<stop offset="1" stop-color="#c49c94" />
</linearGradient>
<linearGradient x1="12.881477754755267" y1="-199.58473772023186" x2="185.67444855254342" y2="74.33033805054907" gradientUnits="userSpaceOnUse" id="d17">
<stop offset="0" stop-color="#aec7e8" />
<stop offset="1" stop-color="#f7b6d2" />
</linearGradient>
<linearGradient x1="22.2208520461306" y1="-198.76175118554366" x2="192.54125642593155" y2="54.10974564645146" gradientUnits="userSpaceOnUse" id="d18">
<stop offset="0" stop-color="#aec7e8" />
<stop offset="1" stop-color="#c7c7c7" />
</linearGradient>
<linearGradient x1="25.506355053596863" y1="-198.36689706672294" x2="196.76134533563302" y2="35.8465197991627" gradientUnits="userSpaceOnUse" id="d19">
<stop offset="0" stop-color="#aec7e8" />
<stop offset="1" stop-color="#bcbd22" />
</linearGradient>
<linearGradient x1="26.445746879425087" y1="-198.24384598768603" x2="199.12329096322446" y2="18.706014967786597" gradientUnits="userSpaceOnUse" id="d20">
<stop offset="0" stop-color="#aec7e8" />
<stop offset="1" stop-color="#17becf" />
</linearGradient>
<linearGradient x1="-143.92033470053354" y1="138.87741810563156" x2="-117.39262562756494" y2="161.92273295700755" gradientUnits="userSpaceOnUse" id="d21">
<stop offset="0" stop-color="#ffbb78" />
<stop offset="1" stop-color="#98df8a" />
</linearGradient>
<linearGradient x1="-149.7316641343644" y1="132.59120919410117" x2="-1.6656809681174494" y2="199.99306364699865" gradientUnits="userSpaceOnUse" id="d22">
<stop offset="0" stop-color="#ffbb78" />
<stop offset="1" stop-color="#d62728" />
</linearGradient>
<linearGradient x1="-157.2555568005256" y1="123.57463273405538" x2="60.8872671216491" y2="190.5065371646258" gradientUnits="userSpaceOnUse" id="d23">
<stop offset="0" stop-color="#ffbb78" />
<stop offset="1" stop-color="#9467bd" />
</linearGradient>
<linearGradient x1="-160.73793445280586" y1="119.00973249211799" x2="98.54855785826206" y2="174.0350014912425" gradientUnits="userSpaceOnUse" id="d24">
<stop offset="0" stop-color="#ffbb78" />
<stop offset="1" stop-color="#8c564b" />
</linearGradient>
<linearGradient x1="-179.12880579338335" y1="88.95431937256532" x2="155.79887033850858" y2="125.40618805005035" gradientUnits="userSpaceOnUse" id="d25">
<stop offset="0" stop-color="#ffbb78" />
<stop offset="1" stop-color="#c49c94" />
</linearGradient>
<linearGradient x1="-180.60171418768255" y1="85.92450658846188" x2="185.67444855254342" y2="74.33033805054907" gradientUnits="userSpaceOnUse" id="d26">
<stop offset="0" stop-color="#ffbb78" />
<stop offset="1" stop-color="#f7b6d2" />
</linearGradient>
<linearGradient x1="-180.97854312911784" y1="85.1279444534051" x2="192.54125642593155" y2="54.10974564645146" gradientUnits="userSpaceOnUse" id="d27">
<stop offset="0" stop-color="#ffbb78" />
<stop offset="1" stop-color="#c7c7c7" />
</linearGradient>
<linearGradient x1="-181.8451641592219" y1="83.26065260316928" x2="196.76134533563302" y2="35.8465197991627" gradientUnits="userSpaceOnUse" id="d28">
<stop offset="0" stop-color="#ffbb78" />
<stop offset="1" stop-color="#bcbd22" />
</linearGradient>
<linearGradient x1="-182.87970289507106" y1="80.96304261211121" x2="199.12329096322446" y2="18.706014967786597" gradientUnits="userSpaceOnUse" id="d29">
<stop offset="0" stop-color="#ffbb78" />
<stop offset="1" stop-color="#17becf" />
</linearGradient>
<linearGradient x1="-40.73163786658892" y1="195.80841063832028" x2="-10.222736791727081" y2="199.73856826483728" gradientUnits="userSpaceOnUse" id="d30">
<stop offset="0" stop-color="#98df8a" />
<stop offset="1" stop-color="#d62728" />
</linearGradient>
<linearGradient x1="-43.134187901958654" y1="195.29322014355367" x2="49.601149494412624" y2="193.75171217006815" gradientUnits="userSpaceOnUse" id="d31">
<stop offset="0" stop-color="#98df8a" />
<stop offset="1" stop-color="#9467bd" />
</linearGradient>
<linearGradient x1="-44.4081093098786" y1="195.00748659351999" x2="93.51232046512872" y2="176.79209801692798" gradientUnits="userSpaceOnUse" id="d32">
<stop offset="0" stop-color="#98df8a" />
<stop offset="1" stop-color="#8c564b" />
</linearGradient>
<linearGradient x1="-55.855537493445" y1="192.04207593993135" x2="131.37300167806163" y2="150.80163934817162" gradientUnits="userSpaceOnUse" id="d33">
<stop offset="0" stop-color="#98df8a" />
<stop offset="1" stop-color="#c49c94" />
</linearGradient>
<linearGradient x1="-59.5902451870884" y1="190.9162190033699" x2="184.39610929953477" y2="77.44723930001649" gradientUnits="userSpaceOnUse" id="d34">
<stop offset="0" stop-color="#98df8a" />
<stop offset="1" stop-color="#f7b6d2" />
</linearGradient>
<linearGradient x1="-60.92985688934752" y1="190.4929199194648" x2="192.3009809150465" y2="54.957553976782215" gradientUnits="userSpaceOnUse" id="d35">
<stop offset="0" stop-color="#98df8a" />
<stop offset="1" stop-color="#c7c7c7" />
</linearGradient>
<linearGradient x1="-61.42507272527676" y1="190.3338131827723" x2="196.3819600320198" y2="37.86985310219958" gradientUnits="userSpaceOnUse" id="d36">
<stop offset="0" stop-color="#98df8a" />
<stop offset="1" stop-color="#bcbd22" />
</linearGradient>
<linearGradient x1="-65.64658029074022" y1="188.91936506385838" x2="198.87181697358528" y2="21.213213184824316" gradientUnits="userSpaceOnUse" id="d37">
<stop offset="0" stop-color="#98df8a" />
<stop offset="1" stop-color="#17becf" />
</linearGradient>
<linearGradient x1="41.42649291829542" y1="195.66258120675607" x2="47.21704974450031" y2="194.34646951623634" gradientUnits="userSpaceOnUse" id="d38">
<stop offset="0" stop-color="#d62728" />
<stop offset="1" stop-color="#9467bd" />
</linearGradient>
<linearGradient x1="37.137831143618754" y1="196.52170744716233" x2="92.35625973252833" y2="177.39876349123116" gradientUnits="userSpaceOnUse" id="d39">
<stop offset="0" stop-color="#d62728" />
<stop offset="1" stop-color="#8c564b" />
</linearGradient>
<linearGradient x1="30.915679005190743" y1="197.5961052036401" x2="122.23090452004605" y2="158.302261450086" gradientUnits="userSpaceOnUse" id="d40">
<stop offset="0" stop-color="#d62728" />
<stop offset="1" stop-color="#c49c94" />
</linearGradient>
<linearGradient x1="28.914033968299645" y1="197.89891015283538" x2="182.8506109880579" y2="81.02872368051918" gradientUnits="userSpaceOnUse" id="d41">
<stop offset="0" stop-color="#d62728" />
<stop offset="1" stop-color="#f7b6d2" />
</linearGradient>
<linearGradient x1="27.531538515683806" y1="198.0959726671883" x2="191.91018978565774" y2="56.307007169914726" gradientUnits="userSpaceOnUse" id="d42">
<stop offset="0" stop-color="#d62728" />
<stop offset="1" stop-color="#c7c7c7" />
</linearGradient>
<linearGradient x1="27.020325513756077" y1="198.16634933593207" x2="196.28280637333248" y2="38.380462766997404" gradientUnits="userSpaceOnUse" id="d43">
<stop offset="0" stop-color="#d62728" />
<stop offset="1" stop-color="#bcbd22" />
</linearGradient>
<linearGradient x1="25.638426251511863" y1="198.34987042936476" x2="198.35034746208603" y2="25.634735451526247" gradientUnits="userSpaceOnUse" id="d44">
<stop offset="0" stop-color="#d62728" />
<stop offset="1" stop-color="#17becf" />
</linearGradient>
<linearGradient x1="84.90846501036589" y1="181.08161853038388" x2="88.45481264323952" y2="179.37599092478735" gradientUnits="userSpaceOnUse" id="d45">
<stop offset="0" stop-color="#9467bd" />
<stop offset="1" stop-color="#8c564b" />
</linearGradient>
<linearGradient x1="83.6774057160467" y1="181.6537689469506" x2="117.17282627107821" y2="162.08185828046186" gradientUnits="userSpaceOnUse" id="d46">
<stop offset="0" stop-color="#9467bd" />
<stop offset="1" stop-color="#c49c94" />
</linearGradient>
<linearGradient x1="83.24897111055058" y1="181.85051225947845" x2="182.0210737649056" y2="82.87538057511892" gradientUnits="userSpaceOnUse" id="d47">
<stop offset="0" stop-color="#9467bd" />
<stop offset="1" stop-color="#f7b6d2" />
</linearGradient>
<linearGradient x1="82.64110748852865" y1="182.12755791771178" x2="191.5123589497239" y2="57.645610149534434" gradientUnits="userSpaceOnUse" id="d48">
<stop offset="0" stop-color="#9467bd" />
<stop offset="1" stop-color="#c7c7c7" />
</linearGradient>
<linearGradient x1="82.6261244997364" y1="182.13435576561074" x2="196.18312488468825" y2="38.886778093316174" gradientUnits="userSpaceOnUse" id="d49">
<stop offset="0" stop-color="#9467bd" />
<stop offset="1" stop-color="#bcbd22" />
</linearGradient>
<linearGradient x1="81.91985894242431" y1="182.45310825210214" x2="198.16685208237797" y2="27.016638128400277" gradientUnits="userSpaceOnUse" id="d50">
<stop offset="0" stop-color="#9467bd" />
<stop offset="1" stop-color="#17becf" />
</linearGradient>
<linearGradient x1="112.26732365151109" y1="165.51751581064423" x2="116.06998586043082" y2="162.87344283940027" gradientUnits="userSpaceOnUse" id="d51">
<stop offset="0" stop-color="#8c564b" />
<stop offset="1" stop-color="#c49c94" />
</linearGradient>
<linearGradient x1="112.22436973751687" y1="165.54664248186103" x2="181.82521062228201" y2="83.30421827352316" gradientUnits="userSpaceOnUse" id="d52">
<stop offset="0" stop-color="#8c564b" />
<stop offset="1" stop-color="#f7b6d2" />
</linearGradient>
<linearGradient x1="112.01411452144525" y1="165.68898016457385" x2="191.31874845041415" y2="58.28495939234374" gradientUnits="userSpaceOnUse" id="d53">
<stop offset="0" stop-color="#8c564b" />
<stop offset="1" stop-color="#c7c7c7" />
</linearGradient>
<linearGradient x1="111.94056669145826" y1="165.7386784332347" x2="196.17992520312612" y2="38.902916950992804" gradientUnits="userSpaceOnUse" id="d54">
<stop offset="0" stop-color="#8c564b" />
<stop offset="1" stop-color="#bcbd22" />
</linearGradient>
<linearGradient x1="111.68133282473455" y1="165.91347111820326" x2="198.06069390288764" y2="27.78419570019351" gradientUnits="userSpaceOnUse" id="d55">
<stop offset="0" stop-color="#8c564b" />
<stop offset="1" stop-color="#17becf" />
</linearGradient>
<linearGradient x1="180.17790173069434" y1="86.80969835176396" x2="181.80358789207057" y2="83.35139728624934" gradientUnits="userSpaceOnUse" id="d56">
<stop offset="0" stop-color="#c49c94" />
<stop offset="1" stop-color="#f7b6d2" />
</linearGradient>
<linearGradient x1="180.15865521792503" y1="86.84963413894624" x2="191.2446003536464" y2="58.527795410164444" gradientUnits="userSpaceOnUse" id="d57">
<stop offset="0" stop-color="#c49c94" />
<stop offset="1" stop-color="#c7c7c7" />
</linearGradient>
<linearGradient x1="179.9801002860186" y1="87.21905469010021" x2="196.1626398209912" y2="38.98998253987918" gradientUnits="userSpaceOnUse" id="d58">
<stop offset="0" stop-color="#c49c94" />
<stop offset="1" stop-color="#bcbd22" />
</linearGradient>
<linearGradient x1="179.09343185292175" y1="89.02551694398004" x2="198.0170172204166" y2="28.093787411619005" gradientUnits="userSpaceOnUse" id="d59">
<stop offset="0" stop-color="#c49c94" />
<stop offset="1" stop-color="#17becf" />
</linearGradient>
<linearGradient x1="190.2123540053858" y1="61.80016491668765" x2="191.23162248633972" y2="58.57018491726017" gradientUnits="userSpaceOnUse" id="d60">
<stop offset="0" stop-color="#f7b6d2" />
<stop offset="1" stop-color="#c7c7c7" />
</linearGradient>
<linearGradient x1="190.09991084469263" y1="62.145184019680144" x2="197.72432708522638" y2="30.084721682182973" gradientUnits="userSpaceOnUse" id="d61">
<stop offset="0" stop-color="#f7b6d2" />
<stop offset="1" stop-color="#17becf" />
</linearGradient>
<linearGradient x1="195.56260239491777" y1="41.895925154211646" x2="197.66941598188077" y2="30.44342269493005" gradientUnits="userSpaceOnUse" id="d62">
<stop offset="0" stop-color="#c7c7c7" />
<stop offset="1" stop-color="#17becf" />
</linearGradient>
<linearGradient x1="197.22204589154487" y1="33.21843786744605" x2="197.58387015691164" y2="30.993777662890327" gradientUnits="userSpaceOnUse" id="d63">
<stop offset="0" stop-color="#bcbd22" />
<stop offset="1" stop-color="#17becf" />
</linearGradient>
</defs>
<rect x="-305" y="-305" width="610.0" height="610.0" fill="#ffffff" fill-opacity="1.0" />
<path d="M200.0,-0.0 A200,200,0,0,0,62.91014904622646,-189.848131797449 L67.31385947946231,-203.13750102327046 A214.0,214.0,0,0,1,214.0,-0.0 Z" fill="#1f77b4" fill-opacity="0.9" />
<path d="M61.008553888209214,-190.4677304754521 A200,200,0,0,0,-151.6274770543031,-130.41897178764594 L-162.24140044810434,-139.54829981278118 A214.0,214.0,0,0,1,65.27915266038386,-203.80047160873377 Z" fill="#aec7e8" fill-opacity="0.9" />
<path d="M-152.92406372511812,-128.89620139397445 A200,200,0,0,0,-131.91686677701256,150.32611303341784 L-141.15104745140346,160.8489409457571 A214.0,214.0,0,0,1,-163.6287481858764,-137.91893549155267 Z" fill="#ffbb78" fill-opacity="0.9" />
<path d="M-130.40703491253163,151.63774347213743 A200,200,0,0,0,-26.54434013210787,198.230668684114 L-28.402443941355422,212.106815492002 A214.0,214.0,0,0,1,-139.53552735640886,162.25238551518706 Z" fill="#98df8a" fill-opacity="0.9" />
<path d="M-24.56073927759986,198.48619621056213 A200,200,0,0,0,43.35097611065884,195.24521215705414 L46.38554443840496,208.91237700804794 A214.0,214.0,0,0,1,-26.27999102703185,212.3802299453015 Z" fill="#d62728" fill-opacity="0.9" />
<path d="M45.30122816078067,194.80194744181819 A200,200,0,0,0,85.7835664608146,180.6687015652213 L91.78841611307162,193.31551067478682 A214.0,214.0,0,0,1,48.472314132035315,208.43808376274546 Z" fill="#9467bd" fill-opacity="0.9" />
<path d="M87.58593422258706,179.80184683800292 A200,200,0,0,0,113.35385266238987,164.77531394779137 L121.28862234875717,176.30958592413677 A214.0,214.0,0,0,1,93.71694961816816,192.38797611666314 Z" fill="#8c564b" fill-opacity="0.9" />
<path d="M114.99591069405022,163.63355561634057 A200,200,0,0,0,180.57132174433573,85.98835830217712 L193.21131426643925,92.00754338332952 A214.0,214.0,0,0,1,123.04562444263375,175.08790450948442 Z" fill="#c49c94" fill-opacity="0.9" />
<path d="M181.42216250518666,84.17837579771687 A200,200,0,0,0,190.42550629101447,61.140220426580186 L203.75529173138548,65.4200358564408 A214.0,214.0,0,0,1,194.12171388054975,90.07086210355705 Z" fill="#f7b6d2" fill-opacity="0.9" />
<path d="M191.0273771093236,59.23294011554945 A200,200,0,0,0,195.67851653583116,41.351156771442874 L209.37601269333936,44.245737745443876 A214.0,214.0,0,0,1,204.39929350697625,63.37924592363791 Z" fill="#c7c7c7" fill-opacity="0.9" />
<path d="M196.08223736742625,39.39233667839865 A200,200,0,0,0,197.2430918997665,33.093242479700706 L211.05010833275017,35.40976945327976 A214.0,214.0,0,0,1,209.8079939831461,42.14980024588656 Z" fill="#bcbd22" fill-opacity="0.9" />
<path d="M197.56415673664003,31.119189786052186 A200,200,0,0,0,199.99000008333306,1.9999666668336944 L213.9893000891664,2.139964333512053 A214.0,214.0,0,0,1,211.39364770820484,33.29753307107584 Z" fill="#17becf" fill-opacity="0.9" />
<path d="M84.62950147738994,-179.0023672460464 A198.0,198.0,0,0,0,62.281047555764154,-187.94965047947454 C24.912419022305663,-75.17986019178981,24.159387339730852,-75.42522126827905,60.398468349327125,-188.5630531706976 A198.0,198.0,0,0,0,37.06885998210109,-194.49909927716217 C14.827543992840436,-77.79963971086488,33.851800590955975,-71.60094689841856,84.62950147738994,-179.0023672460464 Z" fill="url(#d0)" fill-opacity="0.6" />
<path d="M168.16534291903767,-104.5199380066907 A198.0,198.0,0,0,0,84.62950147738994,-179.0023672460464 C33.851800590955975,-71.60094689841856,-78.23479941104024,-12.32704997614184,-195.5869985276006,-30.817624940354598 A198.0,198.0,0,0,0,-181.05090586612036,80.1534121859901 C-72.42036234644814,32.06136487439604,67.26613716761507,-41.80797520267628,168.16534291903767,-104.5199380066907 Z" fill="url(#d1)" fill-opacity="0.6" />
<path d="M182.01117409502115,-77.94826813054866 A198.0,198.0,0,0,0,168.16534291903767,-104.5199380066907 C67.26613716761507,-41.80797520267628,-36.98699349160802,70.03286594486724,-92.46748372902005,175.0821648621681 A198.0,198.0,0,0,0,-64.99011448783281,187.0301714132198 C-25.996045795133128,74.81206856528792,72.80446963800846,-31.179307252219463,182.01117409502115,-77.94826813054866 Z" fill="url(#d2)" fill-opacity="0.6" />
<path d="M185.79852250416812,-68.43178380890076 A198.0,198.0,0,0,0,182.01117409502115,-77.94826813054866 C72.80446963800846,-31.179307252219463,6.077420519707102,78.96647997616864,15.193551299267755,197.4161999404216 A198.0,198.0,0,0,0,25.382041988996747,196.3663717250711 C10.1528167955987,78.54654869002844,74.31940900166725,-27.372713523560307,185.79852250416812,-68.43178380890076 Z" fill="url(#d3)" fill-opacity="0.6" />
<path d="M191.7398567139637,-49.39460848421281 A198.0,198.0,0,0,0,185.79852250416812,-68.43178380890076 C74.31940900166725,-27.372713523560307,25.007714079994862,75.14821512513274,62.51928519998715,187.87053781283183 A198.0,198.0,0,0,0,81.10066035300007,180.62857716958112 C32.440264141200025,72.25143086783245,76.69594268558548,-19.757843393685125,191.7398567139637,-49.39460848421281 Z" fill="url(#d4)" fill-opacity="0.6" />
<path d="M194.11995834299663,-39.00566334409985 A198.0,198.0,0,0,0,191.7398567139637,-49.39460848421281 C76.69594268558548,-19.757843393685125,40.62637174985425,67.9863068451482,101.56592937463562,169.9657671128705 A198.0,198.0,0,0,0,110.56451949648721,164.25433640702124 C44.225807798594886,65.7017345628085,77.64798333719865,-15.602265337639942,194.11995834299663,-39.00566334409985 Z" fill="url(#d5)" fill-opacity="0.6" />
<path d="M196.99328967550844,-19.94100857081274 A198.0,198.0,0,0,0,194.11995834299663,-39.00566334409985 C77.64798333719865,-15.602265337639942,67.15602942532074,41.984612798327134,167.89007356330185,104.96153199581784 A198.0,198.0,0,0,0,177.30249753439253,88.13526177454023 C70.92099901375701,35.25410470981609,78.79731587020338,-7.976403428325097,196.99328967550844,-19.94100857081274 Z" fill="url(#d6)" fill-opacity="0.6" />
<path d="M197.31945576563055,-16.402206447773015 A198.0,198.0,0,0,0,196.99328967550844,-19.94100857081274 C78.79731587020338,-7.976403428325097,74.82575359616219,25.956629187288964,187.06438399040547,64.8915729682224 A198.0,198.0,0,0,0,188.19891173624572,61.523732179483346 C75.27956469449829,24.60949287179334,78.92778230625223,-6.560882579109206,197.31945576563055,-16.402206447773015 Z" fill="url(#d7)" fill-opacity="0.6" />
<path d="M197.86768688403558,-7.237298333028731 A198.0,198.0,0,0,0,197.31945576563055,-16.402206447773015 C78.92778230625223,-6.560882579109206,76.59042161066985,20.163018561213423,191.4760540266746,50.40754640303356 A198.0,198.0,0,0,0,193.6069763709686,41.47696590266953 C77.44279054838745,16.59078636106781,79.14707475361423,-2.8949193332114924,197.86768688403558,-7.237298333028731 Z" fill="url(#d8)" fill-opacity="0.6" />
<path d="M197.92263077794308,-5.534638735998533 A198.0,198.0,0,0,0,197.86768688403558,-7.237298333028731 C79.14707475361423,-2.8949193332114924,77.98386228883152,13.825961902036392,194.9596557220788,34.56490475509098 A198.0,198.0,0,0,0,195.24982543262942,32.88625348877159 C78.09993017305177,13.154501395508635,79.16905231117724,-2.2138554943994135,197.92263077794308,-5.534638735998533 Z" fill="url(#d9)" fill-opacity="0.6" />
<path d="M198.0,-0.0 A198.0,198.0,0,0,0,197.92263077794308,-5.534638735998533 C79.16905231117724,-2.2138554943994135,79.14295570557874,3.0054221308829994,197.85738926394686,7.513555327207498 A198.0,198.0,0,0,0,197.9901000824997,1.9799670001653575 C79.19604003299989,0.7919868000661431,79.2,-0.0,198.0,-0.0 Z" fill="url(#d10)" fill-opacity="0.6" />
<path d="M-61.604830356525454,-188.17238074899228 A198.0,198.0,0,0,0,-150.11120228376006,-129.1147820697695 C-60.04448091350403,-51.6459128279078,-60.55792923514678,-51.042895752013884,-151.39482308786694,-127.6072393800347 A198.0,198.0,0,0,0,-195.5869985276006,-30.817624940354598 C-78.23479941104024,-12.32704997614184,-24.641932142610184,-75.26895229959692,-61.604830356525454,-188.17238074899228 Z" fill="url(#d11)" fill-opacity="0.6" />
<path d="M-34.47115519482247,-194.97625357856904 A198.0,198.0,0,0,0,-61.604830356525454,-188.17238074899228 C-24.641932142610184,-75.26895229959692,-46.48747974851572,64.121402250975,-116.21869937128929,160.3035056274375 A198.0,198.0,0,0,0,-92.46748372902005,175.0821648621681 C-36.98699349160802,70.03286594486724,-13.78846207792899,-77.99050143142762,-34.47115519482247,-194.97625357856904 Z" fill="url(#d12)" fill-opacity="0.6" />
<path d="M-17.766237445547564,-197.20132050021476 A198.0,198.0,0,0,0,-34.47115519482247,-194.97625357856904 C-13.78846207792899,-77.99050143142762,-0.65960966337451,79.19725320421146,-1.6490241584362748,197.99313301052865 A198.0,198.0,0,0,0,15.193551299267755,197.4161999404216 C6.077420519707102,78.96647997616864,-7.106494978219025,-78.8805282000859,-17.766237445547564,-197.20132050021476 Z" fill="url(#d13)" fill-opacity="0.6" />
<path d="M-15.417441706489846,-197.39884115978742 A198.0,198.0,0,0,0,-17.766237445547564,-197.20132050021476 C-7.106494978219025,-78.8805282000859,24.111357780173048,75.44058871719182,60.278394450432614,188.60147179297954 A198.0,198.0,0,0,0,62.51928519998715,187.87053781283183 C25.007714079994862,75.14821512513274,-6.166976682595939,-78.95953646391497,-15.417441706489846,-197.39884115978742 Z" fill="url(#d14)" fill-opacity="0.6" />
<path d="M-10.796557076346826,-197.7054231813007 A198.0,198.0,0,0,0,-15.417441706489846,-197.39884115978742 C-6.166976682595939,-78.95953646391497,39.02522891187178,68.91786059053203,97.56307227967943,172.29465147633007 A198.0,198.0,0,0,0,101.56592937463562,169.9657671128705 C40.62637174985425,67.9863068451482,-4.318622830538731,-79.08216927252028,-10.796557076346826,-197.7054231813007 Z" fill="url(#d15)" fill-opacity="0.6" />
<path d="M12.752662977207713,-197.58889034302953 A198.0,198.0,0,0,0,-10.796557076346826,-197.7054231813007 C-4.318622830538731,-79.08216927252028,61.6963526540494,49.66085046781994,154.2408816351235,124.15212616954985 A198.0,198.0,0,0,0,167.89007356330185,104.96153199581784 C67.15602942532074,41.984612798327134,5.1010651908830855,-79.03555613721181,12.752662977207713,-197.58889034302953 Z" fill="url(#d16)" fill-opacity="0.6" />
<path d="M21.998643525669294,-196.77413367368823 A198.0,198.0,0,0,0,12.752662977207713,-197.58889034302953 C5.1010651908830855,-79.03555613721181,73.5270816268072,29.434813868017432,183.81770406701798,73.58703467004358 A198.0,198.0,0,0,0,187.06438399040547,64.8915729682224 C74.82575359616219,25.956629187288964,8.799457410267719,-78.7096534694753,21.998643525669294,-196.77413367368823 Z" fill="url(#d17)" fill-opacity="0.6" />
<path d="M25.251291503060894,-196.38322809605572 A198.0,198.0,0,0,0,21.998643525669294,-196.77413367368823 C8.799457410267719,-78.7096534694753,76.24633754466889,21.427459275994778,190.61584386167223,53.568648189986945 A198.0,198.0,0,0,0,191.4760540266746,50.40754640303356 C76.59042161066985,20.163018561213423,10.100516601224358,-78.55329123842229,25.251291503060894,-196.38322809605572 Z" fill="url(#d18)" fill-opacity="0.6" />
<path d="M26.181289410630836,-196.26140752780918 A198.0,198.0,0,0,0,25.251291503060894,-196.38322809605572 C10.100516601224358,-78.55329123842229,77.91749275291068,14.19522184046843,194.7937318822767,35.48805460117107 A198.0,198.0,0,0,0,194.9596557220788,34.56490475509098 C77.98386228883152,13.825961902036392,10.472515764252336,-78.50456301112368,26.181289410630836,-196.26140752780918 Z" fill="url(#d19)" fill-opacity="0.6" />
<path d="M37.06885998210109,-194.49909927716217 A198.0,198.0,0,0,0,26.181289410630836,-196.26140752780918 C10.472515764252336,-78.50456301112368,78.85282322143689,7.407581927243493,197.1320580535922,18.518954818108732 A198.0,198.0,0,0,0,197.85738926394686,7.513555327207498 C79.14295570557874,3.0054221308829994,14.827543992840436,-77.79963971086488,37.06885998210109,-194.49909927716217 Z" fill="url(#d20)" fill-opacity="0.6" />
<path d="M-142.4811313535282,137.48864392457526 A198.0,198.0,0,0,0,-130.59769810924243,148.82285190308366 C-52.23907924369698,59.529140761233464,-51.64118582536253,60.04854641496643,-129.10296456340632,150.12136603741607 A198.0,198.0,0,0,0,-116.21869937128929,160.3035056274375 C-46.48747974851572,64.121402250975,-56.99245254141129,54.99545756983011,-142.4811313535282,137.48864392457526 Z" fill="url(#d21)" fill-opacity="0.6" />
<path d="M-148.23434749302075,131.26529710216016 A198.0,198.0,0,0,0,-142.4811313535282,137.48864392457526 C-56.99245254141129,54.99545756983011,-4.048203769523925,79.09647303287556,-10.12050942380981,197.7411825821889 A198.0,198.0,0,0,0,-1.6490241584362748,197.99313301052865 C-0.65960966337451,79.19725320421146,-59.2937389972083,52.50611884086407,-148.23434749302075,131.26529710216016 Z" fill="url(#d22)" fill-opacity="0.6" />
<path d="M-155.68300123252033,122.33888640671482 A198.0,198.0,0,0,0,-148.23434749302075,131.26529710216016 C-59.2937389972083,52.50611884086407,19.6420551997874,76.72567801934699,49.105137999468496,191.81419504836745 A198.0,198.0,0,0,0,60.278394450432614,188.60147179297954 C24.111357780173048,75.44058871719182,-62.27320049300813,48.93555456268593,-155.68300123252033,122.33888640671482 Z" fill="url(#d23)" fill-opacity="0.6" />
<path d="M-159.1305551082778,117.81963516719681 A198.0,198.0,0,0,0,-155.68300123252033,122.33888640671482 C-62.27320049300813,48.93555456268593,37.03087890419098,70.00967081470348,92.57719726047745,175.0241770367587 A198.0,198.0,0,0,0,97.56307227967943,172.29465147633007 C39.02522891187178,68.91786059053203,-63.65222204331113,47.127854066878726,-159.1305551082778,117.81963516719681 Z" fill="url(#d24)" fill-opacity="0.6" />
<path d="M-177.33751773544952,88.06477617883967 A198.0,198.0,0,0,0,-159.1305551082778,117.81963516719681 C-63.65222204331113,47.127854066878726,52.023708664512405,59.71744918187596,130.059271661281,149.2936229546899 A198.0,198.0,0,0,0,154.2408816351235,124.15212616954985 C61.6963526540494,49.66085046781994,-70.93500709417981,35.22591047153587,-177.33751773544952,88.06477617883967 Z" fill="url(#d25)" fill-opacity="0.6" />
<path d="M-178.79569704580572,85.06526152257726 A198.0,198.0,0,0,0,-177.33751773544952,88.06477617883967 C-70.93500709417981,35.22591047153587,73.02085928261577,30.669106762806532,182.55214820653944,76.67276690701632 A198.0,198.0,0,0,0,183.81770406701798,73.58703467004358 C73.5270816268072,29.434813868017432,-71.51827881832229,34.0261046090309,-178.79569704580572,85.06526152257726 Z" fill="url(#d26)" fill-opacity="0.6" />
<path d="M-179.16875769782666,84.27666500887106 A198.0,198.0,0,0,0,-178.79569704580572,85.06526152257726 C-71.51827881832229,34.0261046090309,76.15118844235842,21.763191374805757,190.37797110589602,54.40797843701439 A198.0,198.0,0,0,0,190.61584386167223,53.568648189986945 C76.24633754466889,21.427459275994778,-71.66750307913067,33.710666003548425,-179.16875769782666,84.27666500887106 Z" fill="url(#d27)" fill-opacity="0.6" />
<path d="M-180.02671251762968,82.42804607713758 A198.0,198.0,0,0,0,-179.16875769782666,84.27666500887106 C-71.66750307913067,33.710666003548425,77.76725617267985,14.996461828471034,194.4181404316996,37.49115457117758 A198.0,198.0,0,0,0,194.7937318822767,35.48805460117107 C77.91749275291068,14.19522184046843,-72.01068500705188,32.97121843085503,-180.02671251762968,82.42804607713758 Z" fill="url(#d28)" fill-opacity="0.6" />
<path d="M-181.05090586612036,80.1534121859901 A198.0,198.0,0,0,0,-180.02671251762968,82.42804607713758 C-72.01068500705188,32.97121843085503,78.75323952153977,8.400432421190429,196.8830988038494,21.001081052976073 A198.0,198.0,0,0,0,197.1320580535922,18.518954818108732 C78.85282322143689,7.407581927243493,-72.42036234644814,32.06136487439604,-181.05090586612036,80.1534121859901 Z" fill="url(#d29)" fill-opacity="0.6" />
<path d="M-40.32432148792303,193.85032653193707 A198.0,198.0,0,0,0,-26.27889673078679,196.24836199727284 C-10.511558692314717,78.49934479890914,-9.726052753929546,78.6005336993826,-24.315131884823863,196.5013342484565 A198.0,198.0,0,0,0,-10.12050942380981,197.7411825821889 C-4.048203769523925,79.09647303287556,-16.12972859516921,77.54013061277483,-40.32432148792303,193.85032653193707 Z" fill="url(#d30)" fill-opacity="0.6" />
<path d="M-42.70284602293907,193.34028794211815 A198.0,198.0,0,0,0,-40.32432148792303,193.85032653193707 C-16.12972859516921,77.54013061277483,18.697951698822123,76.9612019284296,46.74487924705531,192.40300482107398 A198.0,198.0,0,0,0,49.105137999468496,191.81419504836745 C19.6420551997874,76.72567801934699,-17.08113840917563,77.33611517684727,-42.70284602293907,193.34028794211815 Z" fill="url(#d31)" fill-opacity="0.6" />
<path d="M-43.96402821677981,193.0574117275848 A198.0,198.0,0,0,0,-42.70284602293907,193.34028794211815 C-17.08113840917563,77.33611517684727,36.573078854081224,70.24991034252754,91.43269713520306,175.62477585631885 A198.0,198.0,0,0,0,92.57719726047745,175.0241770367587 C37.03087890419098,70.00967081470348,-17.585611286711924,77.22296469103392,-43.96402821677981,193.0574117275848 Z" fill="url(#d32)" fill-opacity="0.6" />
<path d="M-55.29698211851055,190.12165518053203 A198.0,198.0,0,0,0,-43.96402821677981,193.0574117275848 C-17.585611286711924,77.22296469103392,48.40343818993824,62.68769553423406,121.00859547484559,156.71923883558514 A198.0,198.0,0,0,0,130.059271661281,149.2936229546899 C52.023708664512405,59.71744918187596,-22.118792847404222,76.04866207221282,-55.29698211851055,190.12165518053203 Z" fill="url(#d33)" fill-opacity="0.6" />
<path d="M-58.994342735217515,189.0070568133362 A198.0,198.0,0,0,0,-55.29698211851055,190.12165518053203 C-22.118792847404222,76.04866207221282,72.40884195127093,32.0873745774856,181.02210487817732,80.21843644371398 A198.0,198.0,0,0,0,182.55214820653944,76.67276690701632 C73.02085928261577,30.669106762806532,-23.59773709408701,75.60282272533448,-58.994342735217515,189.0070568133362 Z" fill="url(#d34)" fill-opacity="0.6" />
<path d="M-60.32055832045405,188.58799072027014 A198.0,198.0,0,0,0,-58.994342735217515,189.0070568133362 C-23.59773709408701,75.60282272533448,75.99643515512047,22.29757483928623,189.99108788780117,55.743937098215575 A198.0,198.0,0,0,0,190.37797110589602,54.40797843701439 C76.15118844235842,21.763191374805757,-24.12822332818162,75.43519628810806,-60.32055832045405,188.58799072027014 Z" fill="url(#d35)" fill-opacity="0.6" />
<path d="M-60.810821998024,188.43047505094458 A198.0,198.0,0,0,0,-60.32055832045405,188.58799072027014 C-24.12822332818162,75.43519628810806,77.72799132383966,15.198663255730972,194.31997830959915,37.99665813932743 A198.0,198.0,0,0,0,194.4181404316996,37.49115457117758 C77.76725617267985,14.996461828471034,-24.3243287992096,75.37219002037783,-60.810821998024,188.43047505094458 Z" fill="url(#d36)" fill-opacity="0.6" />
<path d="M-64.99011448783281,187.0301714132198 A198.0,198.0,0,0,0,-60.810821998024,188.43047505094458 C-24.3243287992096,75.37219002037783,78.54673759498608,10.151355238804394,196.3668439874652,25.378388097010983 A198.0,198.0,0,0,0,196.8830988038494,21.001081052976073 C78.75323952153977,8.400432421190429,-25.996045795133128,74.81206856528792,-64.99011448783281,187.0301714132198 Z" fill="url(#d37)" fill-opacity="0.6" />
<path d="M41.012227989112475,193.70595539468852 A198.0,198.0,0,0,0,42.91746634955225,193.2927600354836 C17.1669865398209,77.31710401419345,17.939286351669146,77.14157118696001,44.84821587917286,192.8539279674 A198.0,198.0,0,0,0,46.74487924705531,192.40300482107398 C18.697951698822123,76.9612019284296,16.40489119564499,77.4823821578754,41.012227989112475,193.70595539468852 Z" fill="url(#d38)" fill-opacity="0.6" />
<path d="M36.766452832182566,194.55649037269072 A198.0,198.0,0,0,0,41.012227989112475,193.70595539468852 C16.40489119564499,77.4823821578754,35.028105806722856,71.0328924062158,87.57026451680713,177.5822310155395 A198.0,198.0,0,0,0,91.43269713520306,175.62477585631885 C36.573078854081224,70.24991034252754,14.706581132873026,77.82259614907629,36.766452832182566,194.55649037269072 Z" fill="url(#d39)" fill-opacity="0.6" />
<path d="M30.606522215138835,195.6201441516037 A198.0,198.0,0,0,0,36.766452832182566,194.55649037269072 C14.706581132873026,77.82259614907629,46.40043920334698,64.1844158790629,116.00109800836744,160.46103969765724 A198.0,198.0,0,0,0,121.00859547484559,156.71923883558514 C48.40343818993824,62.68769553423406,12.242608886055535,78.24805766064149,30.606522215138835,195.6201441516037 Z" fill="url(#d40)" fill-opacity="0.6" />
<path d="M28.62489362861665,195.91992105130703 A198.0,198.0,0,0,0,30.606522215138835,195.6201441516037 C12.242608886055535,78.24805766064149,72.08034521090262,32.818650707747096,180.20086302725653,82.04662676936773 A198.0,198.0,0,0,0,181.02210487817732,80.21843644371398 C72.40884195127093,32.0873745774856,11.44995745144666,78.36796842052281,28.62489362861665,195.91992105130703 Z" fill="url(#d41)" fill-opacity="0.6" />
<path d="M27.25622313052697,196.1150129405164 A198.0,198.0,0,0,0,28.62489362861665,195.91992105130703 C11.44995745144666,78.36796842052281,75.83889414409066,22.827661619215636,189.59723536022665,57.06915404803909 A198.0,198.0,0,0,0,189.99108788780117,55.743937098215575 C75.99643515512047,22.29757483928623,10.902489252210788,78.44600517620657,27.25622313052697,196.1150129405164 Z" fill="url(#d42)" fill-opacity="0.6" />
<path d="M26.750122258618518,196.18468584257275 A198.0,198.0,0,0,0,27.25622313052697,196.1150129405164 C10.902489252210788,78.44600517620657,77.68851745433655,15.399164124953206,194.22129363584136,38.49791031238301 A198.0,198.0,0,0,0,194.31997830959915,37.99665813932743 C77.72799132383966,15.198663255730972,10.700048903447408,78.4738743370291,26.750122258618518,196.18468584257275 Z" fill="url(#d43)" fill-opacity="0.6" />
<path d="M25.382041988996747,196.3663717250711 A198.0,198.0,0,0,0,26.750122258618518,196.18468584257275 C10.700048903447408,78.4738743370291,78.47407342462168,10.69858869884651,196.1851835615542,26.746471747116274 A198.0,198.0,0,0,0,196.3668439874652,25.378388097010983 C78.54673759498608,10.151355238804394,10.1528167955987,78.54654869002844,25.382041988996747,196.3663717250711 Z" fill="url(#d44)" fill-opacity="0.6" />
<path d="M84.05938036026222,179.27080234508006 A198.0,198.0,0,0,0,84.92573079620645,178.8620145495691 C33.970292318482585,71.54480581982764,34.68402995214448,71.20153134784915,86.71007488036119,178.00382836962288 A198.0,198.0,0,0,0,87.57026451680713,177.5822310155395 C35.028105806722856,71.0328924062158,33.62375214410489,71.70832093803203,84.05938036026222,179.27080234508006 Z" fill="url(#d45)" fill-opacity="0.6" />
<path d="M82.84063165888624,179.8372312574811 A198.0,198.0,0,0,0,84.05938036026222,179.27080234508006 C33.62375214410489,71.70832093803203,45.96371440073061,64.49788336440251,114.90928600182652,161.24470841100626 A198.0,198.0,0,0,0,116.00109800836744,160.46103969765724 C46.40043920334698,64.1844158790629,33.136252663554494,71.93489250299244,82.84063165888624,179.8372312574811 Z" fill="url(#d46)" fill-opacity="0.6" />
<path d="M82.41648139944508,180.03200713688366 A198.0,198.0,0,0,0,82.84063165888624,179.8372312574811 C33.136252663554494,71.93489250299244,72.00278340642369,32.98847043631517,180.0069585160592,82.47117609078792 A198.0,198.0,0,0,0,180.20086302725653,82.04662676936773 C72.08034521090262,32.818650707747096,32.96659255977803,72.01280285475347,82.41648139944508,180.03200713688366 Z" fill="url(#d47)" fill-opacity="0.6" />
<path d="M81.81469641364336,180.30628233853466 A198.0,198.0,0,0,0,82.41648139944508,180.03200713688366 C32.96659255977803,72.01280285475347,75.76222438636401,23.08084391936812,189.40556096591,57.7021097984203 A198.0,198.0,0,0,0,189.59723536022665,57.06915404803909 C75.83889414409066,22.827661619215636,32.72587856545734,72.12251293541387,81.81469641364336,180.30628233853466 Z" fill="url(#d48)" fill-opacity="0.6" />
<path d="M81.79986325473905,180.3130122079546 A198.0,198.0,0,0,0,81.81469641364336,180.30628233853466 C32.72587856545734,72.12251293541387,77.68725038043794,15.405555112593152,194.21812595109483,38.51388778148288 A198.0,198.0,0,0,0,194.22129363584136,38.49791031238301 C77.68851745433655,15.399164124953206,32.71994530189562,72.12520488318185,81.79986325473905,180.3130122079546 Z" fill="url(#d49)" fill-opacity="0.6" />
<path d="M81.10066035300007,180.62857716958112 A198.0,198.0,0,0,0,81.79986325473905,180.3130122079546 C32.71994530189562,72.12520488318185,78.43203478554351,11.002541497276631,196.08008696385875,27.506353743191575 A198.0,198.0,0,0,0,196.1851835615542,26.746471747116274 C78.47407342462168,10.69858869884651,32.440264141200025,72.25143086783245,81.10066035300007,180.62857716958112 Z" fill="url(#d50)" fill-opacity="0.6" />
<path d="M111.14465041499598,163.86234065253777 A198.0,198.0,0,0,0,112.22031413576596,163.12756080831346 C44.888125654306386,65.25102432332538,45.53838063484389,64.79888802407088,113.84595158710971,161.99722006017717 A198.0,198.0,0,0,0,114.90928600182652,161.24470841100626 C45.96371440073061,64.49788336440251,44.4578601659984,65.54493626101511,111.14465041499598,163.86234065253777 Z" fill="url(#d51)" fill-opacity="0.6" />
<path d="M111.1021260401417,163.8911760570424 A198.0,198.0,0,0,0,111.14465041499598,163.86234065253777 C44.4578601659984,65.54493626101511,71.99422080525994,33.00715332535474,179.98555201314986,82.51788331338685 A198.0,198.0,0,0,0,180.0069585160592,82.47117609078792 C72.00278340642369,32.98847043631517,44.44085041605668,65.55647042281696,111.1021260401417,163.8911760570424 Z" fill="url(#d52)" fill-opacity="0.6" />
<path d="M110.8939733762308,164.0320903629281 A198.0,198.0,0,0,0,111.1021260401417,163.8911760570424 C44.44085041605668,65.55647042281696,75.73286174004399,23.17700698242512,189.33215435010996,57.942517456062795 A198.0,198.0,0,0,0,189.40556096591,57.7021097984203 C75.76222438636401,23.08084391936812,44.357589350492326,65.61283614517124,110.8939733762308,164.0320903629281 Z" fill="url(#d53)" fill-opacity="0.6" />
<path d="M110.82116102454368,164.08129164890235 A198.0,198.0,0,0,0,110.8939733762308,164.0320903629281 C44.357589350492326,65.61283614517124,77.68040536911252,15.440033085792155,194.20101342278127,38.600082714480386 A198.0,198.0,0,0,0,194.21812595109483,38.51388778148288 C77.68725038043794,15.405555112593152,44.32846440981748,65.63251665956095,110.82116102454368,164.08129164890235 Z" fill="url(#d54)" fill-opacity="0.6" />
<path d="M110.56451949648721,164.25433640702124 A198.0,198.0,0,0,0,110.82116102454368,164.08129164890235 C44.32846440981748,65.63251665956095,78.41473881928498,11.125139815001127,196.03684704821242,27.812849537502814 A198.0,198.0,0,0,0,196.08008696385875,27.506353743191575 C78.43203478554351,11.002541497276631,44.225807798594886,65.7017345628085,110.56451949648721,164.25433640702124 Z" fill="url(#d55)" fill-opacity="0.6" />
<path d="M178.3761227133874,85.94160136824631 A198.0,198.0,0,0,0,178.76560852689238,85.12847471915535 C71.50624341075695,34.05138988766214,71.84317635205392,33.334636815895884,179.60794088013478,83.3365920397397 A198.0,198.0,0,0,0,179.98555201314986,82.51788331338685 C71.99422080525994,33.00715332535474,71.35044908535495,34.37664054729853,178.3761227133874,85.94160136824631 Z" fill="url(#d56)" fill-opacity="0.6" />
<path d="M178.35706866574577,85.98113779755678 A198.0,198.0,0,0,0,178.3761227133874,85.94160136824631 C71.35044908535495,34.37664054729853,75.72772250459053,23.19379322723503,189.31930626147633,57.98448306808757 A198.0,198.0,0,0,0,189.33215435010996,57.942517456062795 C75.73286174004399,23.17700698242512,71.34282746629832,34.39245511902271,178.35706866574577,85.98113779755678 Z" fill="url(#d57)" fill-opacity="0.6" />
<path d="M178.1802992831584,86.3468641431992 A198.0,198.0,0,0,0,178.35706866574577,85.98113779755678 C71.34282746629832,34.39245511902271,77.6485659975008,15.599365324645866,194.12141499375198,38.99841331161466 A198.0,198.0,0,0,0,194.20101342278127,38.600082714480386 C77.68040536911252,15.440033085792155,71.27211971326336,34.538745657279684,178.1802992831584,86.3468641431992 Z" fill="url(#d58)" fill-opacity="0.6" />
<path d="M177.30249753439253,88.13526177454023 A198.0,198.0,0,0,0,178.1802992831584,86.3468641431992 C71.27211971326336,34.538745657279684,78.29883352574966,11.913549786144458,195.74708381437412,29.783874465361144 A198.0,198.0,0,0,0,196.03684704821242,27.812849537502814 C78.41473881928498,11.125139815001127,70.92099901375701,35.25410470981609,177.30249753439253,88.13526177454023 Z" fill="url(#d59)" fill-opacity="0.6" />
<path d="M188.31023046533195,61.18216326752077 A198.0,198.0,0,0,0,188.52125122810432,60.52881822231438 C75.40850049124172,24.21152728892575,75.64684133529215,23.45624428575758,189.11710333823038,58.64061071439395 A198.0,198.0,0,0,0,189.31930626147633,57.98448306808757 C75.72772250459053,23.19379322723503,75.32409218613279,24.47286530700831,188.31023046533195,61.18216326752077 Z" fill="url(#d60)" fill-opacity="0.6" />
<path d="M188.19891173624572,61.523732179483346 A198.0,198.0,0,0,0,188.31023046533195,61.18216326752077 C75.32409218613279,24.47286530700831,78.2770887288248,12.0555953871923,195.69272182206197,30.13898846798075 A198.0,198.0,0,0,0,195.74708381437412,29.783874465361144 C78.29883352574966,11.913549786144458,75.27956469449829,24.60949287179334,188.19891173624572,61.523732179483346 Z" fill="url(#d61)" fill-opacity="0.6" />
<path d="M193.6069763709686,41.47696590266953 A198.0,198.0,0,0,0,193.72173137047287,40.937645203728444 C77.48869254818915,16.375058081491378,78.24321258213702,12.27353595450457,195.60803145534254,30.683839886261424 A198.0,198.0,0,0,0,195.69272182206197,30.13898846798075 C78.2770887288248,12.0555953871923,77.44279054838745,16.59078636106781,193.6069763709686,41.47696590266953 Z" fill="url(#d62)" fill-opacity="0.6" />
<path d="M195.24982543262942,32.88625348877159 A198.0,198.0,0,0,0,195.27066098076884,32.7623100549037 C78.10826439230755,13.10492402196148,78.23540606770945,12.323199155276667,195.58851516927362,30.807997888191665 A198.0,198.0,0,0,0,195.60803145534254,30.683839886261424 C78.24321258213702,12.27353595450457,78.09993017305177,13.154501395508635,195.24982543262942,32.88625348877159 Z" fill="url(#d63)" fill-opacity="0.6" />
<text x="220.00000000000003" y="0" font-size="10" text-anchor="start" dominant-baseline="middle" transform="rotate(-35.833153)" font-family="Arial"><tspan x="220.00000000000003" dy="0em">Artificial</tspan><tspan x="220.00000000000003" dy="1em">Intelligence</tspan></text>
<text x="-220.0" y="0" font-size="10" text-anchor="end" dominant-baseline="middle" transform="rotate(74.230235)" font-family="Arial"><tspan x="-220.0" dy="0em">Climate Change</tspan><tspan x="-220.0" dy="1em">Governance</tspan></text>
<text x="-220.00000000000006" y="0" font-size="10" text-anchor="end" dominant-baseline="middle" transform="rotate(-4.302523)" font-family="Arial">Foundations</text>
<text x="-220.00000000000003" y="0" font-size="10" text-anchor="end" dominant-baseline="middle" transform="rotate(-65.838940)" font-family="Arial">Risk Policy</text>
<text x="220.0" y="0" font-size="10" text-anchor="start" dominant-baseline="middle" transform="rotate(-272.732282)" font-family="Arial"><tspan x="220.0" dy="0em">Governance of</tspan><tspan x="220.0" dy="1em">Pandemics</tspan></text>
<text x="220.00000000000006" y="0" font-size="10" text-anchor="start" dominant-baseline="middle" transform="rotate(-289.245182)" font-family="Arial">Transhumanism</text>
<text x="220.00000000000006" y="0" font-size="10" text-anchor="start" dominant-baseline="middle" transform="rotate(-300.248551)" font-family="Arial"><tspan x="220.00000000000006" dy="0em">Reasoning</tspan><tspan x="220.00000000000006" dy="1em">and Risk</tspan></text>
<text x="220.0" y="0" font-size="10" text-anchor="start" dominant-baseline="middle" transform="rotate(-319.817167)" font-family="Arial"><tspan x="220.0" dy="0em">Global Resilience</tspan><tspan x="220.0" dy="1em">and Food Security</tspan></text>
<text x="220.00000000000006" y="0" font-size="10" text-anchor="start" dominant-baseline="middle" transform="rotate(-338.654371)" font-family="Arial"><tspan x="220.00000000000006" dy="0em">Risk management</tspan><tspan x="220.00000000000006" dy="1em">and mitigation</tspan></text>
<text x="220.00000000000003" y="0" font-size="10" text-anchor="start" dominant-baseline="middle" transform="rotate(-345.420154)" font-family="Arial">Bioengineering</text>
<text x="220.00000000000003" y="0" font-size="10" text-anchor="start" dominant-baseline="middle" transform="rotate(-349.558169)" font-family="Arial">Nuclear Risk</text>
<text x="220.00000000000006" y="0" font-size="10" text-anchor="start" dominant-baseline="middle" transform="rotate(-355.237841)" font-family="Arial"><tspan x="220.00000000000006" dy="0em">Quantifying</tspan><tspan x="220.00000000000006" dy="1em">Climate Risk</tspan></text>
</svg>