<?xml version="1.0" encoding="UTF-8"?>
<svg xmlns="http://www.w3.org/2000/svg" xmlns:xlink="http://www.w3.org/1999/xlink"
     width="610.0" height="610.0" viewBox="-305 -305 610.0 610.0">
<defs>
<linearGradient x1="89.344792991313" y1="-178.93436775907367" x2="42.83142522326324" y2="-195.3598449358107" gradientUnits="userSpaceOnUse" id="d0">
<stop offset="0" stop-color="#1f77b4" />
<stop offset="1" stop-color="#aec7e8" />
</linearGradient>
<linearGradient x1="170.6234903473437" y1="-104.34378056065397" x2="-186.1477786929411" y2="73.13688869294226" gradientUnits="userSpaceOnUse" id="d1">
<stop offset="0" stop-color="#1f77b4" />
<stop offset="1" stop-color="#ffbb78" />
</linearGradient>
<linearGradient x1="170.6234903473437" y1="-104.34378056065397" x2="-103.26957877855682" y2="171.27578374919042" gradientUnits="userSpaceOnUse" id="d2">
<stop offset="0" stop-color="#1f77b4" />
<stop offset="1" stop-color="#98df8a" />
</linearGradient>
<linearGradient x1="184.12225453649822" y1="-78.09606510187926" x2="3.6810222265649855" y2="199.9661223191757" gradientUnits="userSpaceOnUse" id="d3">
<stop offset="0" stop-color="#1f77b4" />
<stop offset="1" stop-color="#d62728" />
</linearGradient>
<linearGradient x1="187.82633410862078" y1="-68.71148532317403" x2="51.06645035058516" y2="193.3706742207598" gradientUnits="userSpaceOnUse" id="d4">
<stop offset="0" stop-color="#1f77b4" />
<stop offset="1" stop-color="#9467bd" />
</linearGradient>
<linearGradient x1="193.66117653824858" y1="-49.95346536348918" x2="91.1151791615419" y2="178.03938925518733" gradientUnits="userSpaceOnUse" id="d5">
<stop offset="0" stop-color="#1f77b4" />
<stop offset="1" stop-color="#8c564b" />
</linearGradient>
<linearGradient x1="196.01565761766403" y1="-39.722310717211634" x2="160.91915929638566" y2="118.76457456390126" gradientUnits="userSpaceOnUse" id="d6">
<stop offset="0" stop-color="#1f77b4" />
<stop offset="1" stop-color="#c49c94" />
</linearGradient>
<linearGradient x1="198.89962190196903" y1="-20.95090468819349" x2="182.92479350254604" y2="80.8611150185977" gradientUnits="userSpaceOnUse" id="d7">
<stop offset="0" stop-color="#1f77b4" />
<stop offset="1" stop-color="#f7b6d2" />
</linearGradient>
<linearGradient x1="199.23584393994537" y1="-17.466496200948285" x2="189.74114064761852" y2="63.23210850304329" gradientUnits="userSpaceOnUse" id="d8">
<stop offset="0" stop-color="#1f77b4" />
<stop offset="1" stop-color="#c7c7c7" />
</linearGradient>
<linearGradient x1="199.3462676457309" y1="-16.15752381142041" x2="193.4565665510529" y2="50.74009123245684" gradientUnits="userSpaceOnUse" id="d9">
<stop offset="0" stop-color="#1f77b4" />
<stop offset="1" stop-color="#bcbd22" />
</linearGradient>
<linearGradient x1="199.87290259510198" y1="-7.129011727362718" x2="196.95673254807514" y2="34.75694900283973" gradientUnits="userSpaceOnUse" id="d10">
<stop offset="0" stop-color="#1f77b4" />
<stop offset="1" stop-color="#17becf" />
</linearGradient>
<linearGradient x1="199.9256807991585" y1="-5.451803095581057" x2="199.86116747609407" y2="7.450753994910242" gradientUnits="userSpaceOnUse" id="d11">
<stop offset="0" stop-color="#1f77b4" />
<stop offset="1" stop-color="#9edae5" />
</linearGradient>
<linearGradient x1="-62.004195317185804" y1="-190.14594332530018" x2="-196.6069617939653" y2="-36.68381896894421" gradientUnits="userSpaceOnUse" id="d12">
<stop offset="0" stop-color="#aec7e8" />
<stop offset="1" stop-color="#ffbb78" />
</linearGradient>
<linearGradient x1="-35.27961064616072" y1="-196.86378303958122" x2="-103.26957877855682" y2="171.27578374919042" gradientUnits="userSpaceOnUse" id="d13">
<stop offset="0" stop-color="#aec7e8" />
<stop offset="1" stop-color="#98df8a" />
</linearGradient>
<linearGradient x1="-18.8321070072416" y1="-199.11140536309767" x2="3.6810222265649855" y2="199.9661223191757" gradientUnits="userSpaceOnUse" id="d14">
<stop offset="0" stop-color="#aec7e8" />
<stop offset="1" stop-color="#d62728" />
</linearGradient>
<linearGradient x1="-18.8321070072416" y1="-199.11140536309767" x2="48.81821256408987" y2="193.95046306221425" gradientUnits="userSpaceOnUse" id="d15">
<stop offset="0" stop-color="#aec7e8" />
<stop offset="1" stop-color="#9467bd" />
</linearGradient>
<linearGradient x1="-16.519398444788376" y1="-199.31660611956627" x2="87.03092423260796" y2="180.07114768118197" gradientUnits="userSpaceOnUse" id="d16">
<stop offset="0" stop-color="#aec7e8" />
<stop offset="1" stop-color="#8c564b" />
</linearGradient>
<linearGradient x1="-11.969276278214426" y1="-199.64151979329293" x2="146.08465786124023" y2="136.59894852290915" gradientUnits="userSpaceOnUse" id="d17">
<stop offset="0" stop-color="#aec7e8" />
<stop offset="1" stop-color="#c49c94" />
</linearGradient>
<linearGradient x1="11.228255363764545" y1="-199.68456695870637" x2="179.03810616754018" y2="89.13672946625653" gradientUnits="userSpaceOnUse" id="d18">
<stop offset="0" stop-color="#aec7e8" />
<stop offset="1" stop-color="#f7b6d2" />
</linearGradient>
<linearGradient x1="20.34259156458369" y1="-198.96275774233862" x2="187.14150274041725" y2="70.55535381569852" gradientUnits="userSpaceOnUse" id="d19">
<stop offset="0" stop-color="#aec7e8" />
<stop offset="1" stop-color="#c7c7c7" />
</linearGradient>
<linearGradient x1="28.05644916716269" y1="-198.02231101603277" x2="192.61271902648724" y2="53.85480915594706" gradientUnits="userSpaceOnUse" id="d20">
<stop offset="0" stop-color="#aec7e8" />
<stop offset="1" stop-color="#bcbd22" />
</linearGradient>
<linearGradient x1="31.24778575620501" y1="-197.5438581311358" x2="196.7940719587567" y2="35.66641616271104" gradientUnits="userSpaceOnUse" id="d21">
<stop offset="0" stop-color="#aec7e8" />
<stop offset="1" stop-color="#17becf" />
</linearGradient>
<linearGradient x1="32.16000257422166" y1="-197.39740179249083" x2="199.16171186456307" y2="18.292417204315868" gradientUnits="userSpaceOnUse" id="d22">
<stop offset="0" stop-color="#aec7e8" />
<stop offset="1" stop-color="#9edae5" />
</linearGradient>
<linearGradient x1="-150.5562486690157" y1="131.6541529413847" x2="-125.8316877319304" y2="155.45541599614324" gradientUnits="userSpaceOnUse" id="d23">
<stop offset="0" stop-color="#ffbb78" />
<stop offset="1" stop-color="#98df8a" />
</linearGradient>
<linearGradient x1="-155.9193714011921" y1="125.2563356555552" x2="-12.914913269760664" y2="199.58257693304432" gradientUnits="userSpaceOnUse" id="d24">
<stop offset="0" stop-color="#ffbb78" />
<stop offset="1" stop-color="#d62728" />
</linearGradient>
<linearGradient x1="-162.83298901811943" y1="116.12673114931376" x2="48.81821256408987" y2="193.95046306221425" gradientUnits="userSpaceOnUse" id="d25">
<stop offset="0" stop-color="#ffbb78" />
<stop offset="1" stop-color="#9467bd" />
</linearGradient>
<linearGradient x1="-166.0198441083189" y1="111.52314272046631" x2="87.03092423260796" y2="180.07114768118197" gradientUnits="userSpaceOnUse" id="d26">
<stop offset="0" stop-color="#ffbb78" />
<stop offset="1" stop-color="#8c564b" />
</linearGradient>
<linearGradient x1="-182.6599448564596" y1="81.4576242290133" x2="146.08465786124023" y2="136.59894852290915" gradientUnits="userSpaceOnUse" id="d27">
<stop offset="0" stop-color="#ffbb78" />
<stop offset="1" stop-color="#c49c94" />
</linearGradient>
<linearGradient x1="-183.9732949623263" y1="78.4463303201934" x2="179.03810616754018" y2="89.13672946625653" gradientUnits="userSpaceOnUse" id="d28">
<stop offset="0" stop-color="#ffbb78" />
<stop offset="1" stop-color="#f7b6d2" />
</linearGradient>
<linearGradient x1="-184.13512583774178" y1="78.06571227318047" x2="187.14150274041725" y2="70.55535381569852" gradientUnits="userSpaceOnUse" id="d29">
<stop offset="0" stop-color="#ffbb78" />
<stop offset="1" stop-color="#c7c7c7" />
</linearGradient>
<linearGradient x1="-184.46884431396126" y1="77.27383436501339" x2="192.61271902648724" y2="53.85480915594706" gradientUnits="userSpaceOnUse" id="d30">
<stop offset="0" stop-color="#ffbb78" />
<stop offset="1" stop-color="#bcbd22" />
</linearGradient>
<linearGradient x1="-185.23517552114347" y1="75.4183648036151" x2="196.7940719587567" y2="35.66641616271104" gradientUnits="userSpaceOnUse" id="d31">
<stop offset="0" stop-color="#ffbb78" />
<stop offset="1" stop-color="#17becf" />
</linearGradient>
<linearGradient x1="-186.1477786929411" y1="73.13688869294226" x2="199.16171186456307" y2="18.292417204315868" gradientUnits="userSpaceOnUse" id="d32">
<stop offset="0" stop-color="#ffbb78" />
<stop offset="1" stop-color="#9edae5" />
</linearGradient>
<linearGradient x1="-50.78727814156822" y1="193.44418414356886" x2="-21.2327854880932" y2="198.86972826555734" gradientUnits="userSpaceOnUse" id="d33">
<stop offset="0" stop-color="#98df8a" />
<stop offset="1" stop-color="#d62728" />
</linearGradient>
<linearGradient x1="-53.101219538117014" y1="192.82183611708686" x2="37.637153341852894" y2="196.4266903664618" gradientUnits="userSpaceOnUse" id="d34">
<stop offset="0" stop-color="#98df8a" />
<stop offset="1" stop-color="#9467bd" />
</linearGradient>
<linearGradient x1="-54.32760640384815" y1="192.47989812556676" x2="81.95620032858866" y2="182.43678693646257" gradientUnits="userSpaceOnUse" id="d35">
<stop offset="0" stop-color="#98df8a" />
<stop offset="1" stop-color="#8c564b" />
</linearGradient>
<linearGradient x1="-65.33090363242833" y1="189.02876244257212" x2="120.54528941020448" y2="159.58957735707568" gradientUnits="userSpaceOnUse" id="d36">
<stop offset="0" stop-color="#98df8a" />
<stop offset="1" stop-color="#c49c94" />
</linearGradient>
<linearGradient x1="-68.9141491547977" y1="187.75207068437433" x2="177.5498253368321" y2="92.06551755603405" gradientUnits="userSpaceOnUse" id="d37">
<stop offset="0" stop-color="#98df8a" />
<stop offset="1" stop-color="#f7b6d2" />
</linearGradient>
<linearGradient x1="-71.16086208577579" y1="186.91209620356088" x2="186.99519659404388" y2="70.94220500347369" gradientUnits="userSpaceOnUse" id="d38">
<stop offset="0" stop-color="#98df8a" />
<stop offset="1" stop-color="#c7c7c7" />
</linearGradient>
<linearGradient x1="-72.43955623354795" y1="186.42025290371924" x2="192.37954785998147" y2="54.681894308711485" gradientUnits="userSpaceOnUse" id="d39">
<stop offset="0" stop-color="#98df8a" />
<stop offset="1" stop-color="#bcbd22" />
</linearGradient>
<linearGradient x1="-72.91211815614676" y1="186.235933766779" x2="196.42616236783522" y2="37.639908839486296" gradientUnits="userSpaceOnUse" id="d40">
<stop offset="0" stop-color="#98df8a" />
<stop offset="1" stop-color="#17becf" />
</linearGradient>
<linearGradient x1="-76.9375597287382" y1="184.60934944630202" x2="198.92194107620818" y2="20.73792078472576" gradientUnits="userSpaceOnUse" id="d41">
<stop offset="0" stop-color="#98df8a" />
<stop offset="1" stop-color="#9edae5" />
</linearGradient>
<linearGradient x1="29.517810439682812" y1="197.8097542257382" x2="35.28113332426443" y2="196.8635101570514" gradientUnits="userSpaceOnUse" id="d42">
<stop offset="0" stop-color="#d62728" />
<stop offset="1" stop-color="#9467bd" />
</linearGradient>
<linearGradient x1="25.29275008626565" y1="198.3942458668439" x2="80.79318596656564" y2="182.95480617183014" gradientUnits="userSpaceOnUse" id="d43">
<stop offset="0" stop-color="#d62728" />
<stop offset="1" stop-color="#8c564b" />
</linearGradient>
<linearGradient x1="19.173420972874077" y1="199.07882842782894" x2="111.14694153471605" y2="166.2719380637587" gradientUnits="userSpaceOnUse" id="d44">
<stop offset="0" stop-color="#d62728" />
<stop offset="1" stop-color="#c49c94" />
</linearGradient>
<linearGradient x1="17.207436635080658" y1="199.25838533032854" x2="175.76675491585098" y2="95.42561430952998" gradientUnits="userSpaceOnUse" id="d45">
<stop offset="0" stop-color="#d62728" />
<stop offset="1" stop-color="#f7b6d2" />
</linearGradient>
<linearGradient x1="16.975444135599638" y1="199.27828355442833" x2="186.13095452039377" y2="73.17969506172534" gradientUnits="userSpaceOnUse" id="d46">
<stop offset="0" stop-color="#d62728" />
<stop offset="1" stop-color="#c7c7c7" />
</linearGradient>
<linearGradient x1="15.618167965404101" y1="199.38924953317928" x2="192.00045861086758" y2="55.998427595929144" gradientUnits="userSpaceOnUse" id="d47">
<stop offset="0" stop-color="#d62728" />
<stop offset="1" stop-color="#bcbd22" />
</linearGradient>
<linearGradient x1="15.116430830532193" y1="199.42791559595094" x2="196.33006914193854" y2="38.137959446221465" gradientUnits="userSpaceOnUse" id="d48">
<stop offset="0" stop-color="#d62728" />
<stop offset="1" stop-color="#17becf" />
</linearGradient>
<linearGradient x1="13.760550253704176" y1="199.52605658588877" x2="198.42491237441556" y2="25.05103090105288" gradientUnits="userSpaceOnUse" id="d49">
<stop offset="0" stop-color="#d62728" />
<stop offset="1" stop-color="#9edae5" />
</linearGradient>
<linearGradient x1="73.27035349489077" y1="186.09528553602252" x2="76.87325097809892" y2="184.6361375355816" gradientUnits="userSpaceOnUse" id="d50">
<stop offset="0" stop-color="#9467bd" />
<stop offset="1" stop-color="#8c564b" />
</linearGradient>
<linearGradient x1="72.03696917801793" y1="186.5761910631828" x2="105.97577190525578" y2="169.61466849622767" gradientUnits="userSpaceOnUse" id="d51">
<stop offset="0" stop-color="#9467bd" />
<stop offset="1" stop-color="#c49c94" />
</linearGradient>
<linearGradient x1="71.60789079500915" y1="186.74129156640757" x2="174.81627314969649" y2="97.15590894047932" gradientUnits="userSpaceOnUse" id="d52">
<stop offset="0" stop-color="#9467bd" />
<stop offset="1" stop-color="#f7b6d2" />
</linearGradient>
<linearGradient x1="71.12248070069825" y1="186.9267041890452" x2="186.04563102545458" y2="73.39634307198423" gradientUnits="userSpaceOnUse" id="d53">
<stop offset="0" stop-color="#9467bd" />
<stop offset="1" stop-color="#c7c7c7" />
</linearGradient>
<linearGradient x1="70.51324766933199" y1="187.15737202451697" x2="191.61471537059833" y2="57.30445753555817" gradientUnits="userSpaceOnUse" id="d54">
<stop offset="0" stop-color="#9467bd" />
<stop offset="1" stop-color="#bcbd22" />
</linearGradient>
<linearGradient x1="70.49823314802306" y1="187.16302819469175" x2="196.23348790837636" y2="38.63182914790739" gradientUnits="userSpaceOnUse" id="d55">
<stop offset="0" stop-color="#9467bd" />
<stop offset="1" stop-color="#17becf" />
</linearGradient>
<linearGradient x1="69.79060191002235" y1="187.42804455320123" x2="198.2500543015103" y2="26.399166074863462" gradientUnits="userSpaceOnUse" id="d56">
<stop offset="0" stop-color="#9467bd" />
<stop offset="1" stop-color="#9edae5" />
</linearGradient>
<linearGradient x1="100.93524750379588" y1="172.66173812210818" x2="104.8507576240178" y2="170.3124147725863" gradientUnits="userSpaceOnUse" id="d57">
<stop offset="0" stop-color="#8c564b" />
<stop offset="1" stop-color="#c49c94" />
</linearGradient>
<linearGradient x1="100.89155246795012" y1="172.68727411308242" x2="174.59247618936527" y2="97.55750744082138" gradientUnits="userSpaceOnUse" id="d58">
<stop offset="0" stop-color="#8c564b" />
<stop offset="1" stop-color="#f7b6d2" />
</linearGradient>
<linearGradient x1="100.8845401384789" y1="172.69137083551" x2="185.85431370494237" y2="73.87945639529889" gradientUnits="userSpaceOnUse" id="d59">
<stop offset="0" stop-color="#8c564b" />
<stop offset="1" stop-color="#c7c7c7" />
</linearGradient>
<linearGradient x1="100.67066981370675" y1="172.8161341983428" x2="191.42704742671748" y2="57.92827904822705" gradientUnits="userSpaceOnUse" id="d60">
<stop offset="0" stop-color="#8c564b" />
<stop offset="1" stop-color="#bcbd22" />
</linearGradient>
<linearGradient x1="100.59586433189858" y1="172.85968899462435" x2="196.23038812218775" y2="38.647571429723165" gradientUnits="userSpaceOnUse" id="d61">
<stop offset="0" stop-color="#8c564b" />
<stop offset="1" stop-color="#17becf" />
</linearGradient>
<linearGradient x1="100.33222615692952" y1="173.0128445936739" x2="198.14889961315183" y2="27.147994071332043" gradientUnits="userSpaceOnUse" id="d62">
<stop offset="0" stop-color="#8c564b" />
<stop offset="1" stop-color="#9edae5" />
</linearGradient>
<linearGradient x1="172.693964362964" y1="100.8801004787531" x2="174.56778381268614" y2="97.60168469205473" gradientUnits="userSpaceOnUse" id="d63">
<stop offset="0" stop-color="#c49c94" />
<stop offset="1" stop-color="#f7b6d2" />
</linearGradient>
<linearGradient x1="172.68472176074076" y1="100.8959209800651" x2="185.8513135568006" y2="73.88700324963644" gradientUnits="userSpaceOnUse" id="d64">
<stop offset="0" stop-color="#c49c94" />
<stop offset="1" stop-color="#c7c7c7" />
</linearGradient>
<linearGradient x1="172.66290847162364" y1="100.93324545520032" x2="191.35518515301752" y2="58.16522255656197" gradientUnits="userSpaceOnUse" id="d65">
<stop offset="0" stop-color="#c49c94" />
<stop offset="1" stop-color="#bcbd22" />
</linearGradient>
<linearGradient x1="172.46063412106122" y1="101.27847588980326" x2="196.21364279906527" y2="38.73249771859303" gradientUnits="userSpaceOnUse" id="d66">
<stop offset="0" stop-color="#c49c94" />
<stop offset="1" stop-color="#17becf" />
</linearGradient>
<linearGradient x1="171.45860947102597" y1="102.96574788861686" x2="198.10728276359785" y2="27.450036721721926" gradientUnits="userSpaceOnUse" id="d67">
<stop offset="0" stop-color="#c49c94" />
<stop offset="1" stop-color="#9edae5" />
</linearGradient>
<linearGradient x1="184.70953048059934" y1="76.69673623849023" x2="185.84454380430176" y2="73.9040292417874" gradientUnits="userSpaceOnUse" id="d68">
<stop offset="0" stop-color="#f7b6d2" />
<stop offset="1" stop-color="#c7c7c7" />
</linearGradient>
<linearGradient x1="184.44912559186432" y1="77.32089024575869" x2="191.3426079229712" y2="58.20658376194323" gradientUnits="userSpaceOnUse" id="d69">
<stop offset="0" stop-color="#f7b6d2" />
<stop offset="1" stop-color="#bcbd22" />
</linearGradient>
<linearGradient x1="184.31202851914358" y1="77.64712578813462" x2="197.82841257582615" y2="29.392502066491527" gradientUnits="userSpaceOnUse" id="d70">
<stop offset="0" stop-color="#f7b6d2" />
<stop offset="1" stop-color="#9edae5" />
</linearGradient>
<linearGradient x1="190.4435513094864" y1="61.083989429563424" x2="191.14468928400748" y2="58.853273133448084" gradientUnits="userSpaceOnUse" id="d71">
<stop offset="0" stop-color="#c7c7c7" />
<stop offset="1" stop-color="#bcbd22" />
</linearGradient>
<linearGradient x1="190.3412407649694" y1="61.40205260455021" x2="196.13576121861257" y2="39.124968641462175" gradientUnits="userSpaceOnUse" id="d72">
<stop offset="0" stop-color="#c7c7c7" />
<stop offset="1" stop-color="#17becf" />
</linearGradient>
<linearGradient x1="190.15236105286593" y1="61.984510855701025" x2="197.77609704722735" y2="29.742485383130113" gradientUnits="userSpaceOnUse" id="d73">
<stop offset="0" stop-color="#c7c7c7" />
<stop offset="1" stop-color="#9edae5" />
</linearGradient>
<linearGradient x1="195.55262254459794" y1="41.94248223376873" x2="197.68411096890725" y2="30.347854461769945" gradientUnits="userSpaceOnUse" id="d74">
<stop offset="0" stop-color="#bcbd22" />
<stop offset="1" stop-color="#9edae5" />
</linearGradient>
<linearGradient x1="197.24141511326272" y1="33.10323494943619" x2="197.60096670432682" y2="30.884590939747262" gradientUnits="userSpaceOnUse" id="d75">
<stop offset="0" stop-color="#17becf" />
<stop offset="1" stop-color="#9edae5" />
</linearGradient>
</defs>
<rect x="-305" y="-305" width="610.0" height="610.0" fill="#ffffff" fill-opacity="1.0" />
<path d="M200.0,-0.0 A200,200,0,0,0,67.53854737071728,-188.25128052433902 L72.2662456866675,-201.42887016104277 A214.0,214.0,0,0,1,214.0,-0.0 Z" fill="#1f77b4" fill-opacity="0.9" />
<path d="M65.65268904130286,-188.91724225608945 A200,200,0,0,0,-149.69692261583677,-132.63043149800944 L-160.17570719894536,-141.91456170287012 A214.0,214.0,0,0,1,70.24837727419407,-202.14144921401572 Z" fill="#aec7e8" fill-opacity="0.9" />
<path d="M-151.01572004209817,-131.12685575490107 A200,200,0,0,0,-139.42412929358693,143.39076738313787 L-149.18381834413802,153.42812109995754 A214.0,214.0,0,0,1,-161.58682044504505,-140.30573565774415 Z" fill="#ffbb78" fill-opacity="0.9" />
<path d="M-137.98327436972585,144.77781596021183 A200,200,0,0,0,-37.09517735629406,196.5297631833537 L-39.69183977123465,210.28684660618848 A214.0,214.0,0,0,1,-147.64210357560665,154.91226307742667 Z" fill="#98df8a" fill-opacity="0.9" />
<path d="M-35.12805773584577,196.89088236814595 A200,200,0,0,0,31.415736863881467,197.51721817932574 L33.61483844435317,211.34342345187855 A214.0,214.0,0,0,1,-37.58702177735498,210.67324413391617 Z" fill="#d62728" fill-opacity="0.9" />
<path d="M33.38930535254956,197.19319026800648 A200,200,0,0,0,74.14754037795811,185.74752287957725 L79.33786820441519,198.74984948114766 A214.0,214.0,0,0,1,35.726556727228036,210.99671358676693 Z" fill="#9467bd" fill-opacity="0.9" />
<path d="M76.00127730286395,184.99677253490984 A200,200,0,0,0,102.04093358776312,172.0106039537613 L109.18379893890655,184.0513462305246 A214.0,214.0,0,0,1,81.32136671406444,197.94654661235353 Z" fill="#8c564b" fill-opacity="0.9" />
<path d="M103.75590895484758,170.98161116609404 A200,200,0,0,0,173.14021661604932,100.11226393478236 L185.26003177917278,107.12012241021714 A214.0,214.0,0,0,1,111.01882258168692,182.95032394772065 Z" fill="#c49c94" fill-opacity="0.9" />
<path d="M174.13266563141391,98.37588505369696 A200,200,0,0,0,184.9034718649039,76.22798759185953 L197.84671489544718,81.5639467232897 A214.0,214.0,0,0,1,186.3219522256129,105.26219700745575 Z" fill="#f7b6d2" fill-opacity="0.9" />
<path d="M185.65649393967104,74.3751723226837 A200,200,0,0,0,190.4951483970567,60.922889271466275 L203.82980878485068,65.18749152046892 A214.0,214.0,0,0,1,198.65244851544801,79.58143438527156 Z" fill="#c7c7c7" fill-opacity="0.9" />
<path d="M191.0948424579601,59.01492341744928 A200,200,0,0,0,195.6658041460863,41.41126764378758 L209.36241043631233,44.310056378852714 A214.0,214.0,0,0,1,204.47148143001732,63.14596805667073 Z" fill="#bcbd22" fill-opacity="0.9" />
<path d="M196.07012671200056,39.45257166700351 A200,200,0,0,0,197.26186833673145,32.981135521719516 L211.07019912030268,35.289815008239884 A214.0,214.0,0,0,1,209.7950355818406,42.21425168369376 Z" fill="#17becf" fill-opacity="0.9" />
<path d="M197.58181118389552,31.006900672131927 A200,200,0,0,0,199.99000008333306,1.999966666834405 L213.9893000891664,2.1399643335128133 A214.0,214.0,0,0,1,211.4125379667682,33.177383719181165 Z" fill="#9edae5" fill-opacity="0.9" />
<path d="M88.45134506139988,-177.14502408148294 A198.0,198.0,0,0,0,66.86316189701007,-186.36876771909562 C26.74526475880403,-74.54750708763825,25.998464860355938,-74.81122793341143,64.99616215088984,-187.02806983352858 A198.0,198.0,0,0,0,42.40311097103061,-193.4062464864526 C16.961244388412243,-77.36249859458104,35.380538024559954,-70.85800963259318,88.45134506139988,-177.14502408148294 Z" fill="url(#d0)" fill-opacity="0.6" />
<path d="M168.91725544387026,-103.30034275504742 A198.0,198.0,0,0,0,88.45134506139988,-177.14502408148294 C35.380538024559954,-70.85800963259318,-77.85635687041025,-14.526792311701909,-194.64089217602563,-36.31698077925477 A198.0,198.0,0,0,0,-184.2863009060117,72.40551980601283 C-73.71452036240468,28.962207922405135,67.5669021775481,-41.320137102018975,168.91725544387026,-103.30034275504742 Z" fill="url(#d1)" fill-opacity="0.6" />
<path d="M182.28103199113323,-77.31510445086047 A198.0,198.0,0,0,0,168.91725544387026,-103.30034275504742 C67.5669021775481,-41.320137102018975,-40.89475319630851,67.82521036467942,-102.23688299077126,169.56302591169853 A198.0,198.0,0,0,0,-76.16818413145081,182.763255951839 C-30.467273652580328,73.10530238073561,72.9124127964533,-30.926041780344192,182.28103199113323,-77.31510445086047 Z" fill="url(#d2)" fill-opacity="0.6" />
<path d="M185.94807076753457,-68.0243704699423 A198.0,198.0,0,0,0,182.28103199113323,-77.31510445086047 C72.9124127964533,-30.926041780344192,1.4576848017197344,79.18658443839358,3.6442120042993356,197.96646109598393 A198.0,198.0,0,0,0,13.622944751167134,197.53079602002987 C5.449177900466854,79.01231840801195,74.37922830701383,-27.20974818797692,185.94807076753457,-68.0243704699423 Z" fill="url(#d3)" fill-opacity="0.6" />
<path d="M191.7245647728661,-49.45393070985429 A198.0,198.0,0,0,0,185.94807076753457,-68.0243704699423 C74.37922830701383,-27.20974818797692,20.222314338831723,76.57478699142088,50.55578584707931,191.4369674785522 A198.0,198.0,0,0,0,69.09269589092212,185.55376410766922 C27.637078356368846,74.22150564306769,76.68982590914645,-19.781572283941717,191.7245647728661,-49.45393070985429 Z" fill="url(#d4)" fill-opacity="0.6" />
<path d="M194.0555010414874,-39.32508761003952 A198.0,198.0,0,0,0,191.7245647728661,-49.45393070985429 C76.68982590914645,-19.781572283941717,36.081610947970596,70.50359814505418,90.20402736992648,176.25899536263546 A198.0,198.0,0,0,0,99.32890389536023,171.28271614773715 C39.731561558144094,68.51308645909486,77.62220041659496,-15.730035044015807,194.0555010414874,-39.32508761003952 Z" fill="url(#d5)" fill-opacity="0.6" />
<path d="M196.91062568294933,-20.741395641311556 A198.0,198.0,0,0,0,194.0555010414874,-39.32508761003952 C77.62220041659496,-15.730035044015807,63.72398708136872,47.0307715273049,159.3099677034218,117.57692881826225 A198.0,198.0,0,0,0,169.7440233763157,101.93609040973068 C67.89760935052628,40.774436163892275,78.76425027317974,-8.296558256524623,196.91062568294933,-20.741395641311556 Z" fill="url(#d6)" fill-opacity="0.6" />
<path d="M197.24348550054592,-17.2918312389388 A198.0,198.0,0,0,0,196.91062568294933,-20.741395641311556 C78.76425027317974,-8.296558256524623,72.43821822700824,32.0210015473647,181.0955455675206,80.05250386841173 A198.0,198.0,0,0,0,182.46890823395216,76.87065453025328 C72.98756329358086,30.748261812101312,78.89739420021837,-6.916732495575521,197.24348550054592,-17.2918312389388 Z" fill="url(#d7)" fill-opacity="0.6" />
<path d="M197.3528049692736,-15.995948573306206 A198.0,198.0,0,0,0,197.24348550054592,-17.2918312389388 C78.89739420021837,-6.916732495575521,75.13749169645693,25.039914967205146,187.84372924114234,62.59978741801286 A198.0,198.0,0,0,0,188.25083744233726,61.36466574714402 C75.3003349769349,24.545866298857607,78.94112198770944,-6.398379429322483,197.3528049692736,-15.995948573306206 Z" fill="url(#d8)" fill-opacity="0.6" />
<path d="M197.87417356915097,-7.05772161008909 A198.0,198.0,0,0,0,197.3528049692736,-15.995948573306206 C78.94112198770944,-6.398379429322483,76.60880035421695,20.09307612805291,191.52200088554238,50.23269032013227 A198.0,198.0,0,0,0,193.59709631915194,41.52305741143104 C77.43883852766078,16.609222964572417,79.1496694276604,-2.823088644035636,197.87417356915097,-7.05772161008909 Z" fill="url(#d9)" fill-opacity="0.6" />
<path d="M197.9264239911669,-5.397285064625246 A198.0,198.0,0,0,0,197.87417356915097,-7.05772161008909 C79.1496694276604,-2.823088644035636,77.99486608903776,13.763751805124535,194.98716522259437,34.409379512811334 A198.0,198.0,0,0,0,195.2690009621301,32.772202599941835 C78.10760038485205,13.108881039976735,79.17056959646676,-2.1589140258500983,197.9264239911669,-5.397285064625246 Z" fill="url(#d10)" fill-opacity="0.6" />
<path d="M198.0,-0.0 A198.0,198.0,0,0,0,197.9264239911669,-5.397285064625246 C79.17056959646676,-2.1589140258500983,79.14502232053326,2.950498581984456,197.86255580133314,7.376246454961139 A198.0,198.0,0,0,0,197.9901000824997,1.979967000166061 C79.19604003299989,0.7919868000664244,79.2,-0.0,198.0,-0.0 Z" fill="url(#d11)" fill-opacity="0.6" />
<path d="M-61.38415336401395,-188.24448389204719 A198.0,198.0,0,0,0,-148.19995338967848,-131.30412718302927 C-59.2799813558714,-52.52165087321171,-59.802225136670884,-51.92623487894082,-149.5055628416772,-129.81558719735204 A198.0,198.0,0,0,0,-194.64089217602563,-36.31698077925477 C-77.85635687041025,-14.526792311701909,-24.55366134560558,-75.29779355681887,-61.38415336401395,-188.24448389204719 Z" fill="url(#d12)" fill-opacity="0.6" />
<path d="M-34.92681453969911,-194.8951452091854 A198.0,198.0,0,0,0,-61.38415336401395,-188.24448389204719 C-24.55366134560558,-75.29779355681887,-49.829348341844444,61.560344734472736,-124.5733708546111,153.90086183618183 A198.0,198.0,0,0,0,-102.23688299077126,169.56302591169853 C-40.89475319630851,67.82521036467942,-13.970725815879645,-77.95805808367416,-34.92681453969911,-194.8951452091854 Z" fill="url(#d13)" fill-opacity="0.6" />
<path d="M-18.643785937169184,-197.1202913094667 A198.0,198.0,0,0,0,-34.92681453969911,-194.8951452091854 C-13.970725815879645,-77.95805808367416,-5.114305654825223,79.03470046548557,-12.785764137063058,197.5867511637139 A198.0,198.0,0,0,0,3.6442120042993356,197.96646109598393 C1.4576848017197344,79.18658443839358,-7.457514374867674,-78.84811652378669,-18.643785937169184,-197.1202913094667 Z" fill="url(#d14)" fill-opacity="0.6" />
<path d="M-16.354204460340494,-197.3234400583706 A198.0,198.0,0,0,0,-18.643785937169184,-197.1202913094667 C-7.457514374867674,-78.84811652378669,19.33201217537959,76.80438337263685,48.33003043844897,192.01095843159212 A198.0,198.0,0,0,0,50.55578584707931,191.4369674785522 C20.222314338831723,76.57478699142088,-6.541681784136198,-78.92937602334825,-16.354204460340494,-197.3234400583706 Z" fill="url(#d15)" fill-opacity="0.6" />
<path d="M-11.849583515432283,-197.64510459535998 A198.0,198.0,0,0,0,-16.354204460340494,-197.3234400583706 C-6.541681784136198,-78.92937602334825,34.46424599611276,71.30817448174807,86.16061499028189,178.27043620437016 A198.0,198.0,0,0,0,90.20402736992648,176.25899536263546 C36.081610947970596,70.50359814505418,-4.739833406172913,-79.05804183814399,-11.849583515432283,-197.64510459535998 Z" fill="url(#d16)" fill-opacity="0.6" />
<path d="M11.115972810126898,-197.6877212891193 A198.0,198.0,0,0,0,-11.849583515432283,-197.64510459535998 C-4.739833406172913,-79.05804183814399,57.849524513051136,54.09318361507202,144.62381128262783,135.23295903768005 A198.0,198.0,0,0,0,159.3099677034218,117.57692881826225 C63.72398708136872,47.0307715273049,4.44638912405076,-79.07508851564774,11.115972810126898,-197.6877212891193 Z" fill="url(#d17)" fill-opacity="0.6" />
<path d="M20.13916564893785,-196.97313016491523 A198.0,198.0,0,0,0,11.115972810126898,-197.6877212891193 C4.44638912405076,-79.07508851564774,70.89909004234592,35.298144868637586,177.2477251058648,88.24536217159397 A198.0,198.0,0,0,0,181.0955455675206,80.05250386841173 C72.43821822700824,32.0210015473647,8.05566625957514,-78.7892520659661,20.13916564893785,-196.97313016491523 Z" fill="url(#d18)" fill-opacity="0.6" />
<path d="M27.775884675491064,-196.04208790587245 A198.0,198.0,0,0,0,20.13916564893785,-196.97313016491523 C8.05566625957514,-78.7892520659661,74.10803508520523,27.939920111016615,185.27008771301308,69.84980027754153 A198.0,198.0,0,0,0,187.84372924114234,62.59978741801286 C75.13749169645693,25.039914967205146,11.110353870196427,-78.41683516234899,27.775884675491064,-196.04208790587245 Z" fill="url(#d19)" fill-opacity="0.6" />
<path d="M30.93530789864296,-195.56841954982445 A198.0,198.0,0,0,0,27.775884675491064,-196.04208790587245 C11.110353870196427,-78.41683516234899,76.27463673448895,21.326504425755036,190.68659183622236,53.31626106438759 A198.0,198.0,0,0,0,191.52200088554238,50.23269032013227 C76.60880035421695,20.09307612805291,12.374123159457184,-78.22736781992978,30.93530789864296,-195.56841954982445 Z" fill="url(#d20)" fill-opacity="0.6" />
<path d="M31.83840254847944,-195.4234277745659 A198.0,198.0,0,0,0,30.93530789864296,-195.56841954982445 C12.374123159457184,-78.22736781992978,77.93045249566765,14.123900800433569,194.82613123916911,35.30975200108392 A198.0,198.0,0,0,0,194.98716522259437,34.409379512811334 C77.99486608903776,13.763751805124535,12.735361019391776,-78.16937110982637,31.83840254847944,-195.4234277745659 Z" fill="url(#d21)" fill-opacity="0.6" />
<path d="M42.40311097103061,-193.4062464864526 A198.0,198.0,0,0,0,31.83840254847944,-195.4234277745659 C12.735361019391776,-78.16937110982637,78.86803789836699,7.243797212909084,197.17009474591745,18.10949303227271 A198.0,198.0,0,0,0,197.86255580133314,7.376246454961139 C79.14502232053326,2.950498581984456,16.961244388412243,-77.36249859458104,42.40311097103061,-193.4062464864526 Z" fill="url(#d22)" fill-opacity="0.6" />
<path d="M-149.05068618232553,130.33761141197084 A198.0,198.0,0,0,0,-138.029888000651,141.95685970930657 C-55.211955200260405,56.78274388372263,-54.64137665041143,57.33201512024388,-136.60344162602857,143.3300378006097 A198.0,198.0,0,0,0,-124.5733708546111,153.90086183618183 C-49.829348341844444,61.560344734472736,-59.62027447293022,52.13504456478834,-149.05068618232553,130.33761141197084 Z" fill="url(#d23)" fill-opacity="0.6" />
<path d="M-154.3601776871802,124.00377229899965 A198.0,198.0,0,0,0,-149.05068618232553,130.33761141197084 C-59.62027447293022,52.13504456478834,-8.408183053284906,78.75241239316072,-21.020457633212267,196.8810309829018 A198.0,198.0,0,0,0,-12.785764137063058,197.5867511637139 C-5.114305654825223,79.03470046548557,-61.74407107487208,49.601508919599866,-154.3601776871802,124.00377229899965 Z" fill="url(#d24)" fill-opacity="0.6" />
<path d="M-161.20465912793824,114.96546383782062 A198.0,198.0,0,0,0,-154.3601776871802,124.00377229899965 C-61.74407107487208,49.601508919599866,14.904312723373744,77.78496938511887,37.26078180843436,194.46242346279718 A198.0,198.0,0,0,0,48.33003043844897,192.01095843159212 C19.33201217537959,76.80438337263685,-64.4818636511753,45.98618553512825,-161.20465912793824,114.96546383782062 Z" fill="url(#d25)" fill-opacity="0.6" />
<path d="M-164.3596456672357,110.40791129326165 A198.0,198.0,0,0,0,-161.20465912793824,114.96546383782062 C-64.4818636511753,45.98618553512825,32.454655330121106,72.24496762683917,81.13663832530277,180.61241906709793 A198.0,198.0,0,0,0,86.16061499028189,178.27043620437016 C34.46424599611276,71.30817448174807,-65.74385826689428,44.163164517304665,-164.3596456672357,110.40791129326165 Z" fill="url(#d26)" fill-opacity="0.6" />
<path d="M-180.833345407895,80.64304798672318 A198.0,198.0,0,0,0,-164.3596456672357,110.40791129326165 C-65.74385826689428,44.163164517304665,47.73593460644098,63.19747263340197,119.33983651610244,157.99368158350492 A198.0,198.0,0,0,0,144.62381128262783,135.23295903768005 C57.849524513051136,54.09318361507202,-72.333338163158,32.25721919468927,-180.833345407895,80.64304798672318 Z" fill="url(#d27)" fill-opacity="0.6" />
<path d="M-182.133562012703,77.66186701699147 A198.0,198.0,0,0,0,-180.833345407895,80.64304798672318 C-72.333338163158,32.25721919468927,70.30973083338552,36.457944952189486,175.7743270834638,91.14486238047371 A198.0,198.0,0,0,0,177.2477251058648,88.24536217159397 C70.89909004234592,35.298144868637586,-72.8534248050812,31.064746806796588,-182.133562012703,77.66186701699147 Z" fill="url(#d28)" fill-opacity="0.6" />
<path d="M-182.29377457936437,77.28505515044866 A198.0,198.0,0,0,0,-182.133562012703,77.66186701699147 C-72.8534248050812,31.064746806796588,74.05009785124138,28.093113181375585,185.12524462810342,70.23278295343896 A198.0,198.0,0,0,0,185.27008771301308,69.84980027754153 C74.10803508520523,27.939920111016615,-72.91750983174575,30.914022060179462,-182.29377457936437,77.28505515044866 Z" fill="url(#d29)" fill-opacity="0.6" />
<path d="M-182.62415587082165,76.50109602136325 A198.0,198.0,0,0,0,-182.29377457936437,77.28505515044866 C-72.91750983174575,30.914022060179462,76.18230095255267,21.654030146249752,190.45575238138167,54.135075365624374 A198.0,198.0,0,0,0,190.68659183622236,53.31626106438759 C76.27463673448895,21.326504425755036,-73.04966234832867,30.6004384085453,-182.62415587082165,76.50109602136325 Z" fill="url(#d30)" fill-opacity="0.6" />
<path d="M-183.38282376593205,74.66418115557894 A198.0,198.0,0,0,0,-182.62415587082165,76.50109602136325 C-73.04966234832867,30.6004384085453,77.78476029766274,14.905403900436575,194.46190074415685,37.26350975109143 A198.0,198.0,0,0,0,194.82613123916911,35.30975200108392 C77.93045249566765,14.123900800433569,-73.35312950637282,29.86567246223158,-183.38282376593205,74.66418115557894 Z" fill="url(#d31)" fill-opacity="0.6" />
<path d="M-184.2863009060117,72.40551980601283 A198.0,198.0,0,0,0,-183.38282376593205,74.66418115557894 C-73.35312950637282,29.86567246223158,78.77308866617844,8.212216630751401,196.93272166544608,20.530541576878502 A198.0,198.0,0,0,0,197.17009474591745,18.10949303227271 C78.86803789836699,7.243797212909084,-73.71452036240468,28.962207922405135,-184.2863009060117,72.40551980601283 Z" fill="url(#d32)" fill-opacity="0.6" />
<path d="M-50.279405360152545,191.5097423021332 A198.0,198.0,0,0,0,-36.724225582731115,194.5644655515202 C-14.689690233092447,77.82578622060808,-13.910710863394929,77.9687894177858,-34.77677715848732,194.9219735444645 A198.0,198.0,0,0,0,-21.020457633212267,196.8810309829018 C-8.408183053284906,78.75241239316072,-20.111762144061018,76.60389692085327,-50.279405360152545,191.5097423021332 Z" fill="url(#d33)" fill-opacity="0.6" />
<path d="M-52.57020734273585,190.89361775591598 A198.0,198.0,0,0,0,-50.279405360152545,191.5097423021332 C-20.111762144061018,76.60389692085327,13.971328796408713,77.95795002219235,34.92832199102178,194.89487505548087 A198.0,198.0,0,0,0,37.26078180843436,194.46242346279718 C14.904312723373744,77.78496938511887,-21.02808293709434,76.3574471023664,-52.57020734273585,190.89361775591598 Z" fill="url(#d34)" fill-opacity="0.6" />
<path d="M-53.78433033980967,190.5550991443111 A198.0,198.0,0,0,0,-52.57020734273585,190.89361775591598 C-21.02808293709434,76.3574471023664,31.994101642759997,72.45010324404474,79.98525410689999,181.12525811011184 A198.0,198.0,0,0,0,81.13663832530277,180.61241906709793 C32.454655330121106,72.24496762683917,-21.51373213592387,76.22203965772444,-53.78433033980967,190.5550991443111 Z" fill="url(#d35)" fill-opacity="0.6" />
<path d="M-64.67759459610404,187.1384748181464 A198.0,198.0,0,0,0,-53.78433033980967,190.5550991443111 C-21.51373213592387,76.22203965772444,44.01418884774756,65.84368747324845,110.03547211936889,164.60921868312113 A198.0,198.0,0,0,0,119.33983651610244,157.99368158350492 C47.73593460644098,63.19747263340197,-25.87103783844162,74.85538992725856,-64.67759459610404,187.1384748181464 Z" fill="url(#d36)" fill-opacity="0.6" />
<path d="M-68.22500766324973,185.8745499775306 A198.0,198.0,0,0,0,-64.67759459610404,187.1384748181464 C-25.87103783844162,74.85538992725856,69.60363494667699,37.788543266573875,174.00908736669248,94.47135816643468 A198.0,198.0,0,0,0,175.7743270834638,91.14486238047371 C70.30973083338552,36.457944952189486,-27.290003065299892,74.34981999101224,-68.22500766324973,185.8745499775306 Z" fill="url(#d37)" fill-opacity="0.6" />
<path d="M-70.44925346491803,185.04297524152528 A198.0,198.0,0,0,0,-68.22500766324973,185.8745499775306 C-27.290003065299892,74.34981999101224,73.70785799007594,28.979159244443238,184.26964497518983,72.44789811110809 A198.0,198.0,0,0,0,185.12524462810342,70.23278295343896 C74.05009785124138,28.093113181375585,-28.179701385967213,74.01719009661012,-70.44925346491803,185.04297524152528 Z" fill="url(#d38)" fill-opacity="0.6" />
<path d="M-71.71516067121247,184.55605037468206 A198.0,198.0,0,0,0,-70.44925346491803,185.04297524152528 C-28.179701385967213,74.01719009661012,76.03218160990357,22.175377327987945,190.08045402475892,55.438443319969856 A198.0,198.0,0,0,0,190.45575238138167,54.135075365624374 C76.18230095255267,21.654030146249752,-28.68606426848499,73.82242014987283,-71.71516067121247,184.55605037468206 Z" fill="url(#d39)" fill-opacity="0.6" />
<path d="M-72.1829969745853,184.37357442911122 A198.0,198.0,0,0,0,-71.71516067121247,184.55605037468206 C-28.68606426848499,73.82242014987283,77.74670738020767,15.1026319407037,194.36676845051915,37.75657985175925 A198.0,198.0,0,0,0,194.46190074415685,37.26350975109143 C77.78476029766274,14.905403900436575,-28.87319878983412,73.74942977164449,-72.1829969745853,184.37357442911122 Z" fill="url(#d40)" fill-opacity="0.6" />
<path d="M-76.16818413145081,182.763255951839 A198.0,198.0,0,0,0,-72.1829969745853,184.37357442911122 C-28.87319878983412,73.74942977164449,78.57626530026857,9.92020823681694,196.4406632506714,24.80052059204235 A198.0,198.0,0,0,0,196.93272166544608,20.530541576878502 C78.77308866617844,8.212216630751401,-30.467273652580328,73.10530238073561,-76.16818413145081,182.763255951839 Z" fill="url(#d41)" fill-opacity="0.6" />
<path d="M29.222632335285983,195.83165668348082 A198.0,198.0,0,0,0,31.10157949524265,195.54204599753248 C12.44063179809706,78.216818399013,13.222164919609629,78.08850334613057,33.05541229902407,195.2212583653264 A198.0,198.0,0,0,0,34.92832199102178,194.89487505548087 C13.971328796408713,77.95795002219235,11.689052934114393,78.33266267339233,29.222632335285983,195.83165668348082 Z" fill="url(#d42)" fill-opacity="0.6" />
<path d="M25.03982258540299,196.41030340817548 A198.0,198.0,0,0,0,29.222632335285983,195.83165668348082 C11.689052934114393,78.33266267339233,30.441807387327174,73.11591046409032,76.10451846831793,182.78977616022578 A198.0,198.0,0,0,0,79.98525410689999,181.12525811011184 C31.994101642759997,72.45010324404474,10.015929034161196,78.5641213632702,25.03982258540299,196.41030340817548 Z" fill="url(#d43)" fill-opacity="0.6" />
<path d="M18.981686763145333,197.08804014355064 A198.0,198.0,0,0,0,25.03982258540299,196.41030340817548 C10.015929034161196,78.5641213632702,41.96640567448129,67.16740872450616,104.91601418620321,167.91852181126538 A198.0,198.0,0,0,0,110.03547211936889,164.60921868312113 C44.01418884774756,65.84368747324845,7.592674705258133,78.83521605742027,18.981686763145333,197.08804014355064 Z" fill="url(#d44)" fill-opacity="0.6" />
<path d="M17.035362268729852,197.26580147702526 A198.0,198.0,0,0,0,18.981686763145333,197.08804014355064 C7.592674705258133,78.83521605742027,69.2272441672798,38.473739940429816,173.06811041819952,96.18434985107453 A198.0,198.0,0,0,0,174.00908736669248,94.47135816643468 C69.60363494667699,37.788543266573875,6.814144907491941,78.90632059081011,17.035362268729852,197.26580147702526 Z" fill="url(#d45)" fill-opacity="0.6" />
<path d="M16.80568969424364,197.28550071888404 A198.0,198.0,0,0,0,17.035362268729852,197.26580147702526 C6.814144907491941,78.90632059081011,73.67406988608002,29.064951856505758,184.18517471520005,72.6623796412644 A198.0,198.0,0,0,0,184.26964497518983,72.44789811110809 C73.70785799007594,28.979159244443238,6.722275877697456,78.91420028755363,16.80568969424364,197.28550071888404 Z" fill="url(#d46)" fill-opacity="0.6" />
<path d="M15.46198628575006,197.39535703784748 A198.0,198.0,0,0,0,16.80568969424364,197.28550071888404 C6.722275877697456,78.91420028755363,75.87942728675694,22.692565184081037,189.69856821689234,56.73141296020259 A198.0,198.0,0,0,0,190.08045402475892,55.438443319969856 C76.03218160990357,22.175377327987945,6.184794514300024,78.958142815139,15.46198628575006,197.39535703784748 Z" fill="url(#d47)" fill-opacity="0.6" />
<path d="M14.965266522226871,197.43363643999143 A198.0,198.0,0,0,0,15.46198628575006,197.39535703784748 C6.184794514300024,78.958142815139,77.70846121171705,15.298204342571324,194.2711530292926,38.24551085642831 A198.0,198.0,0,0,0,194.36676845051915,37.75657985175925 C77.74670738020767,15.1026319407037,5.986106608890749,78.97345457599658,14.965266522226871,197.43363643999143 Z" fill="url(#d48)" fill-opacity="0.6" />
<path d="M13.622944751167134,197.53079602002987 A198.0,198.0,0,0,0,14.965266522226871,197.43363643999143 C5.986106608890749,78.97345457599658,78.50702150339808,10.454069765645931,196.26755375849518,26.135174414114825 A198.0,198.0,0,0,0,196.4406632506714,24.80052059204235 C78.57626530026857,9.92020823681694,5.449177900466854,79.01231840801195,13.622944751167134,197.53079602002987 Z" fill="url(#d49)" fill-opacity="0.6" />
<path d="M72.53764995994186,184.23433268066228 A198.0,198.0,0,0,0,73.40606497417869,183.8900476507814 C29.36242598967148,73.55601906031256,30.09650581193413,73.25872192382431,75.24126452983532,183.14680480956076 A198.0,198.0,0,0,0,76.10451846831793,182.78977616022578 C30.441807387327174,73.11591046409032,29.015059983976744,73.69373307226492,72.53764995994186,184.23433268066228 Z" fill="url(#d50)" fill-opacity="0.6" />
<path d="M71.31659948623775,184.71042915255097 A198.0,198.0,0,0,0,72.53764995994186,184.23433268066228 C29.015059983976744,73.69373307226492,41.52090001911105,67.44371624994417,103.80225004777763,168.60929062486042 A198.0,198.0,0,0,0,104.91601418620321,167.91852181126538 C41.96640567448129,67.16740872450616,28.5266397944951,73.88417166102039,71.31659948623775,184.71042915255097 Z" fill="url(#d51)" fill-opacity="0.6" />
<path d="M70.89181188705906,184.8738786507435 A198.0,198.0,0,0,0,71.31659948623775,184.71042915255097 C28.5266397944951,73.88417166102039,69.13862057098865,38.63277294656527,172.8465514274716,96.58193236641317 A198.0,198.0,0,0,0,173.06811041819952,96.18434985107453 C69.2272441672798,38.473739940429816,28.356724754823627,73.9495514602974,70.89181188705906,184.8738786507435 Z" fill="url(#d52)" fill-opacity="0.6" />
<path d="M70.41125589369128,185.05743714715476 A198.0,198.0,0,0,0,70.89181188705906,184.8738786507435 C28.356724754823627,73.9495514602974,73.59830822715718,29.256264732538366,183.99577056789295,73.14066183134591 A198.0,198.0,0,0,0,184.18517471520005,72.6623796412644 C73.67406988608002,29.064951856505758,28.16450235747651,74.0229748588619,70.41125589369128,185.05743714715476 Z" fill="url(#d53)" fill-opacity="0.6" />
<path d="M69.80811519263867,185.2857983042718 A198.0,198.0,0,0,0,70.41125589369128,185.05743714715476 C28.16450235747651,74.0229748588619,75.80511078098013,22.939598503097912,189.5127769524503,57.34899625774478 A198.0,198.0,0,0,0,189.69856821689234,56.73141296020259 C75.87942728675694,22.692565184081037,27.923246077055467,74.11431932170872,69.80811519263867,185.2857983042718 Z" fill="url(#d54)" fill-opacity="0.6" />
<path d="M69.79325081654282,185.29139791274483 A198.0,198.0,0,0,0,69.80811519263867,185.2857983042718 C27.923246077055467,74.11431932170872,77.70723369638637,15.304438286170374,194.2680842409659,38.26109571542593 A198.0,198.0,0,0,0,194.2711530292926,38.24551085642831 C77.70846121171705,15.298204342571324,27.91730032661713,74.11655916509794,69.79325081654282,185.29139791274483 Z" fill="url(#d55)" fill-opacity="0.6" />
<path d="M69.09269589092212,185.55376410766922 A198.0,198.0,0,0,0,69.79325081654282,185.29139791274483 C27.91730032661713,74.11655916509794,78.46696424680813,10.75060565224749,196.16741061702032,26.876514130618723 A198.0,198.0,0,0,0,196.26755375849518,26.135174414114825 C78.50702150339808,10.454069765645931,27.637078356368846,74.22150564306769,69.09269589092212,185.55376410766922 Z" fill="url(#d56)" fill-opacity="0.6" />
<path d="M99.92589502875792,170.9351207408871 A198.0,198.0,0,0,0,101.02052425188549,170.29049791422366 C40.4082097007542,68.11619916568947,41.08733994611965,67.70871802177325,102.71834986529912,169.2717950544331 A198.0,198.0,0,0,0,103.80225004777763,168.60929062486042 C41.52090001911105,67.44371624994417,39.97035801150317,68.37404829635484,99.92589502875792,170.9351207408871 Z" fill="url(#d57)" fill-opacity="0.6" />
<path d="M99.88263694327061,170.9604013719516 A198.0,198.0,0,0,0,99.92589502875792,170.9351207408871 C39.97035801150317,68.37404829635484,69.1288423898237,38.65026713805368,172.82210597455926,96.62566784513419 A198.0,198.0,0,0,0,172.8465514274716,96.58193236641317 C69.13862057098865,38.63277294656527,39.953054777308246,68.38416054878064,99.88263694327061,170.9604013719516 Z" fill="url(#d58)" fill-opacity="0.6" />
<path d="M99.87569473709411,170.96445712715493 A198.0,198.0,0,0,0,99.88263694327061,170.9604013719516 C39.953054777308246,68.38416054878064,73.59712016849305,29.25925328685603,183.9928004212326,73.14813321714007 A198.0,198.0,0,0,0,183.99577056789295,73.14066183134591 C73.59830822715718,29.256264732538366,39.95027789483765,68.38578285086197,99.87569473709411,170.96445712715493 Z" fill="url(#d59)" fill-opacity="0.6" />
<path d="M99.66396311556969,171.08797285635939 A198.0,198.0,0,0,0,99.87569473709411,170.96445712715493 C39.95027789483765,68.38578285086197,75.77665332059495,23.03342813239854,189.44163330148734,57.58357033099635 A198.0,198.0,0,0,0,189.5127769524503,57.34899625774478 C75.80511078098013,22.939598503097912,39.86558524622788,68.43518914254376,99.66396311556969,171.08797285635939 Z" fill="url(#d60)" fill-opacity="0.6" />
<path d="M99.58990568857959,171.13109210467812 A198.0,198.0,0,0,0,99.66396311556969,171.08797285635939 C39.86558524622788,68.43518914254376,77.70060254842986,15.33806909656284,194.25150637107464,38.3451727414071 A198.0,198.0,0,0,0,194.2680842409659,38.26109571542593 C77.70723369638637,15.304438286170374,39.83596227543184,68.45243684187125,99.58990568857959,171.13109210467812 Z" fill="url(#d61)" fill-opacity="0.6" />
<path d="M99.32890389536023,171.28271614773715 A198.0,198.0,0,0,0,99.58990568857959,171.13109210467812 C39.83596227543184,68.45243684187125,78.45048397438475,10.870214541801884,196.12620993596187,27.175536354504708 A198.0,198.0,0,0,0,196.16741061702032,26.876514130618723 C78.46696424680813,10.75060565224749,39.731561558144094,68.51308645909486,99.32890389536023,171.28271614773715 Z" fill="url(#d62)" fill-opacity="0.6" />
<path d="M170.96702471933438,99.87129947396558 A198.0,198.0,0,0,0,171.4088144498888,99.11114129543454 C68.56352577995553,39.64445651817382,68.95653559003992,38.956850481264,172.39133897509979,97.39212620315999 A198.0,198.0,0,0,0,172.82210597455926,96.62566784513419 C69.1288423898237,38.65026713805368,68.38680988773375,39.948519789586236,170.96702471933438,99.87129947396558 Z" fill="url(#d63)" fill-opacity="0.6" />
<path d="M170.95787454313336,99.88696177026445 A198.0,198.0,0,0,0,170.96702471933438,99.87129947396558 C68.38680988773375,39.948519789586236,73.5944393465035,29.26599557974781,183.98609836625874,73.16498894936952 A198.0,198.0,0,0,0,183.9928004212326,73.14813321714007 C73.59712016849305,29.25925328685603,68.38314981725334,39.954784708105784,170.95787454313336,99.88696177026445 Z" fill="url(#d64)" fill-opacity="0.6" />
<path d="M170.93627938690742,99.92391300064833 A198.0,198.0,0,0,0,170.95787454313336,99.88696177026445 C68.38314981725334,39.954784708105784,75.7716727374966,23.04980716972952,189.4291818437415,57.6245179243238 A198.0,198.0,0,0,0,189.44163330148734,57.58357033099635 C75.77665332059495,23.03342813239854,68.37451175476296,39.96956520025933,170.93627938690742,99.92391300064833 Z" fill="url(#d65)" fill-opacity="0.6" />
<path d="M170.7360277798506,100.26569113090522 A198.0,198.0,0,0,0,170.93627938690742,99.92391300064833 C68.37451175476296,39.96956520025933,77.66976144257058,15.493487582019023,194.17440360642644,38.73371895504756 A198.0,198.0,0,0,0,194.25150637107464,38.3451727414071 C77.70060254842986,15.33806909656284,68.29441111194024,40.106276452362096,170.7360277798506,100.26569113090522 Z" fill="url(#d66)" fill-opacity="0.6" />
<path d="M169.7440233763157,101.93609040973068 A198.0,198.0,0,0,0,170.7360277798506,100.26569113090522 C68.29441111194024,40.106276452362096,78.34005138002716,11.639430818330645,195.8501284500679,29.098577045826612 A198.0,198.0,0,0,0,196.12620993596187,27.175536354504708 C78.45048397438475,10.870214541801884,67.89760935052628,40.774436163892275,169.7440233763157,101.93609040973068 Z" fill="url(#d67)" fill-opacity="0.6" />
<path d="M182.86243517579337,75.92976887610533 A198.0,198.0,0,0,0,183.05443714625486,75.46570771594094 C73.22177485850195,30.186283086376378,73.51997160010973,29.452568239782746,183.79992900027432,73.63142059945686 A198.0,198.0,0,0,0,183.98609836625874,73.16498894936952 C73.5944393465035,29.26599557974781,73.14497407031735,30.37190755044213,182.86243517579337,75.92976887610533 Z" fill="url(#d68)" fill-opacity="0.6" />
<path d="M182.6046343359457,76.54768134330111 A198.0,198.0,0,0,0,182.86243517579337,75.92976887610533 C73.14497407031735,30.37190755044213,75.69329695646697,23.305896160845442,189.2332423911674,58.2647404021136 A198.0,198.0,0,0,0,189.4291818437415,57.6245179243238 C75.7716727374966,23.04980716972952,73.04185373437828,30.619072537320445,182.6046343359457,76.54768134330111 Z" fill="url(#d69)" fill-opacity="0.6" />
<path d="M182.46890823395216,76.87065453025328 A198.0,198.0,0,0,0,182.6046343359457,76.54768134330111 C73.04185373437828,30.619072537320445,78.31933443070204,11.778024211719526,195.79833607675508,29.44506052929881 A198.0,198.0,0,0,0,195.8501284500679,29.098577045826612 C78.34005138002716,11.639430818330645,72.98756329358086,30.748261812101312,182.46890823395216,76.87065453025328 Z" fill="url(#d70)" fill-opacity="0.6" />
<path d="M188.53911579639154,60.47314953526779 A198.0,198.0,0,0,0,188.59019691308615,60.313660378751614 C75.43607876523446,24.125464151500648,75.6735576133522,23.36990967330992,189.1838940333805,58.42477418327479 A198.0,198.0,0,0,0,189.2332423911674,58.2647404021136 C75.69329695646697,23.305896160845442,75.41564631855663,24.189259814107118,188.53911579639154,60.47314953526779 Z" fill="url(#d71)" fill-opacity="0.6" />
<path d="M188.43782835731972,60.788032078504706 A198.0,198.0,0,0,0,188.53911579639154,60.47314953526779 C75.41564631855663,24.189259814107118,77.64377017795222,15.623218380133393,194.10942544488054,39.05804595033348 A198.0,198.0,0,0,0,194.17440360642644,38.73371895504756 C77.66976144257058,15.493487582019023,75.37513134292789,24.315212831401883,188.43782835731972,60.788032078504706 Z" fill="url(#d72)" fill-opacity="0.6" />
<path d="M188.25083744233726,61.36466574714402 A198.0,198.0,0,0,0,188.43782835731972,60.788032078504706 C75.37513134292789,24.315212831401883,78.28290794368728,12.0177503668609,195.70726985921817,30.044375917152248 A198.0,198.0,0,0,0,195.79833607675508,29.44506052929881 C78.31933443070204,11.778024211719526,75.3003349769349,24.545866298857607,188.25083744233726,61.36466574714402 Z" fill="url(#d73)" fill-opacity="0.6" />
<path d="M193.59709631915194,41.52305741143104 A198.0,198.0,0,0,0,193.7091461046254,40.99715496734971 C77.48365844185017,16.398861986939885,78.24998281491344,12.230298012139917,195.62495703728356,30.57574503034979 A198.0,198.0,0,0,0,195.70726985921817,30.044375917152248 C78.28290794368728,12.0177503668609,77.43883852766078,16.609222964572417,193.59709631915194,41.52305741143104 Z" fill="url(#d74)" fill-opacity="0.6" />
<path d="M195.2690009621301,32.772202599941835 A198.0,198.0,0,0,0,195.28924965336412,32.65132416650232 C78.11569986134566,13.060529666600928,78.24239722882264,12.278732666164244,195.60599307205658,30.696831665410606 A198.0,198.0,0,0,0,195.62495703728356,30.57574503034979 C78.24998281491344,12.230298012139917,78.10760038485205,13.108881039976735,195.2690009621301,32.772202599941835 Z" fill="url(#d75)" fill-opacity="0.6" />
<text x="220.00000000000003" y="0" font-size="10" text-anchor="start" dominant-baseline="middle" transform="rotate(-35.131817)" font-family="Arial">AI Ethics</text>
<text x="-220.00000000000003" y="0" font-size="10" text-anchor="end" dominant-baseline="middle" transform="rotate(75.352064)" font-family="Arial"><tspan x="-220.00000000000003" dy="0em">Climate Change</tspan><tspan x="-220.00000000000003" dy="1em">Governance</tspan></text>
<text x="-220.00000000000006" y="0" font-size="10" text-anchor="end" dominant-baseline="middle" transform="rotate(-2.417896)" font-family="Arial">Foundations</text>
<text x="-220.00000000000003" y="0" font-size="10" text-anchor="end" dominant-baseline="middle" transform="rotate(-62.843816)" font-family="Arial">Risk Policy</text>
<text x="-220.0" y="0" font-size="10" text-anchor="end" dominant-baseline="middle" transform="rotate(-89.460726)" font-family="Arial">Pandemics</text>
<text x="220.00000000000003" y="0" font-size="10" text-anchor="start" dominant-baseline="middle" transform="rotate(-285.685726)" font-family="Arial">Transhumanism</text>
<text x="220.00000000000003" y="0" font-size="10" text-anchor="start" dominant-baseline="middle" transform="rotate(-296.505771)" font-family="Arial"><tspan x="220.00000000000003" dy="0em">Reasoning</tspan><tspan x="220.00000000000003" dy="1em">and Risk</tspan></text>
<text x="220.00000000000003" y="0" font-size="10" text-anchor="start" dominant-baseline="middle" transform="rotate(-315.606639)" font-family="Arial"><tspan x="220.00000000000003" dy="0em">Global Resilience</tspan><tspan x="220.00000000000003" dy="1em">and Food Security</tspan></text>
<text x="220.00000000000006" y="0" font-size="10" text-anchor="start" dominant-baseline="middle" transform="rotate(-334.065752)" font-family="Arial"><tspan x="220.00000000000006" dy="0em">Industry, finance,</tspan><tspan x="220.00000000000006" dy="1em">and regulation</tspan></text>
<text x="220.00000000000003" y="0" font-size="10" text-anchor="start" dominant-baseline="middle" transform="rotate(-340.216839)" font-family="Arial"><tspan x="220.00000000000003" dy="0em">International</tspan><tspan x="220.00000000000003" dy="1em">Relations</tspan></text>
<text x="220.00000000000003" y="0" font-size="10" text-anchor="start" dominant-baseline="middle" transform="rotate(-345.444043)" font-family="Arial">Bioengineering</text>
<text x="220.00000000000003" y="0" font-size="10" text-anchor="start" dominant-baseline="middle" transform="rotate(-349.565650)" font-family="Arial">Nuclear Risk</text>
<text x="220.0" y="0" font-size="10" text-anchor="start" dominant-baseline="middle" transform="rotate(-355.254122)" font-family="Arial"><tspan x="220.0" dy="0em">Quantifying</tspan><tspan x="220.0" dy="1em">Climate Risk</tspan></text>
</svg>