<?xml version="1.0" encoding="UTF-8"?>
<svg xmlns="http://www.w3.org/2000/svg" xmlns:xlink="http://www.w3.org/1999/xlink"
     width="610.0" height="610.0" viewBox="-305 -305 610.0 610.0">
<defs>
<linearGradient x1="79.28275016102707" y1="-183.6143935722474" x2="27.626563365817514" y2="-198.08274280359325" gradientUnits="userSpaceOnUse" id="d0">
<stop offset="0" stop-color="#418bbf" />
<stop offset="1" stop-color="#ff9232" />
</linearGradient>
<linearGradient x1="170.1792150054011" y1="-105.06681103062692" x2="-171.32412955264206" y2="103.18935329300945" gradientUnits="userSpaceOnUse" id="d1">
<stop offset="0" stop-color="#418bbf" />
<stop offset="1" stop-color="#4cae4c" />
</linearGradient>
<linearGradient x1="170.1792150054011" y1="-105.06681103062692" x2="-67.15321649563934" y2="188.38908013547334" gradientUnits="userSpaceOnUse" id="d2">
<stop offset="0" stop-color="#418bbf" />
<stop offset="1" stop-color="#dc4748" />
</linearGradient>
<linearGradient x1="184.84083224412134" y1="-76.37975343833338" x2="45.50549408815997" y2="194.75433244935127" gradientUnits="userSpaceOnUse" id="d3">
<stop offset="0" stop-color="#418bbf" />
<stop offset="1" stop-color="#a47ec7" />
</linearGradient>
<linearGradient x1="188.7652429313153" y1="-66.0884487719414" x2="92.1709321086775" y2="177.49512464915077" gradientUnits="userSpaceOnUse" id="d4">
<stop offset="0" stop-color="#418bbf" />
<stop offset="1" stop-color="#9d6f66" />
</linearGradient>
<linearGradient x1="194.7561327492873" y1="-45.49778847968307" x2="129.68621158307735" y2="152.2546765299158" gradientUnits="userSpaceOnUse" id="d5">
<stop offset="0" stop-color="#418bbf" />
<stop offset="1" stop-color="#e78bcb" />
</linearGradient>
<linearGradient x1="197.0425605678065" y1="-34.26702970615194" x2="186.89390601050334" y2="71.20862234404724" gradientUnits="userSpaceOnUse" id="d6">
<stop offset="0" stop-color="#418bbf" />
<stop offset="1" stop-color="#929292" />
</linearGradient>
<linearGradient x1="199.53124719032905" y1="-13.685079271666535" x2="198.09248047762713" y2="27.556653973603463" gradientUnits="userSpaceOnUse" id="d7">
<stop offset="0" stop-color="#418bbf" />
<stop offset="1" stop-color="#c6c743" />
</linearGradient>
<linearGradient x1="199.75630470444366" y1="-9.870092746547792" x2="199.6476176899817" y2="11.867129000516757" gradientUnits="userSpaceOnUse" id="d8">
<stop offset="0" stop-color="#418bbf" />
<stop offset="1" stop-color="#3ac7d6" />
</linearGradient>
<linearGradient x1="-65.63964543555608" y1="-188.92177467696644" x2="-199.53820068688347" y2="-13.583315745465393" gradientUnits="userSpaceOnUse" id="d9">
<stop offset="0" stop-color="#ff9232" />
<stop offset="1" stop-color="#4cae4c" />
</linearGradient>
<linearGradient x1="-36.565300108547426" y1="-196.629038618338" x2="-67.15321649563934" y2="188.38908013547334" gradientUnits="userSpaceOnUse" id="d10">
<stop offset="0" stop-color="#ff9232" />
<stop offset="1" stop-color="#dc4748" />
</linearGradient>
<linearGradient x1="-36.565300108547426" y1="-196.629038618338" x2="27.69034536220072" y2="198.07383667138384" gradientUnits="userSpaceOnUse" id="d11">
<stop offset="0" stop-color="#ff9232" />
<stop offset="1" stop-color="#a47ec7" />
</linearGradient>
<linearGradient x1="-18.617160146898605" y1="-199.1316181525795" x2="89.91407190230544" y2="178.6489845309708" gradientUnits="userSpaceOnUse" id="d12">
<stop offset="0" stop-color="#ff9232" />
<stop offset="1" stop-color="#9d6f66" />
</linearGradient>
<linearGradient x1="-16.092000185534392" y1="-199.35156766383543" x2="125.85513158319806" y2="155.436436700588" gradientUnits="userSpaceOnUse" id="d13">
<stop offset="0" stop-color="#ff9232" />
<stop offset="1" stop-color="#e78bcb" />
</linearGradient>
<linearGradient x1="-11.123505000800408" y1="-199.69042950651684" x2="176.39817400644964" y2="94.25329812367475" gradientUnits="userSpaceOnUse" id="d14">
<stop offset="0" stop-color="#ff9232" />
<stop offset="1" stop-color="#929292" />
</linearGradient>
<linearGradient x1="14.198016226336458" y1="-199.49540429603056" x2="196.4709825843029" y2="37.40525367322805" gradientUnits="userSpaceOnUse" id="d15">
<stop offset="0" stop-color="#ff9232" />
<stop offset="1" stop-color="#c6c743" />
</linearGradient>
<linearGradient x1="24.133243917695737" y1="-198.53862731974604" x2="199.40761672597228" y2="15.38188517925356" gradientUnits="userSpaceOnUse" id="d16">
<stop offset="0" stop-color="#ff9232" />
<stop offset="1" stop-color="#3ac7d6" />
</linearGradient>
<linearGradient x1="-125.69629897619505" y1="155.5649074299438" x2="-94.64592163191001" y2="176.1878245465513" gradientUnits="userSpaceOnUse" id="d17">
<stop offset="0" stop-color="#4cae4c" />
<stop offset="1" stop-color="#dc4748" />
</linearGradient>
<linearGradient x1="-132.65293133366805" y1="149.6769848994332" x2="27.69034536220072" y2="198.07383667138384" gradientUnits="userSpaceOnUse" id="d18">
<stop offset="0" stop-color="#4cae4c" />
<stop offset="1" stop-color="#a47ec7" />
</linearGradient>
<linearGradient x1="-141.7454271395133" y1="141.09654101017827" x2="89.91407190230544" y2="178.6489845309708" gradientUnits="userSpaceOnUse" id="d19">
<stop offset="0" stop-color="#4cae4c" />
<stop offset="1" stop-color="#9d6f66" />
</linearGradient>
<linearGradient x1="-145.9909643566363" y1="136.6990794636868" x2="125.85513158319806" y2="155.436436700588" gradientUnits="userSpaceOnUse" id="d20">
<stop offset="0" stop-color="#4cae4c" />
<stop offset="1" stop-color="#e78bcb" />
</linearGradient>
<linearGradient x1="-168.94598459071563" y1="107.03856450211613" x2="176.39817400644964" y2="94.25329812367475" gradientUnits="userSpaceOnUse" id="d21">
<stop offset="0" stop-color="#4cae4c" />
<stop offset="1" stop-color="#929292" />
</linearGradient>
<linearGradient x1="-170.83821982988758" y1="103.99183932095349" x2="196.4709825843029" y2="37.40525367322805" gradientUnits="userSpaceOnUse" id="d22">
<stop offset="0" stop-color="#4cae4c" />
<stop offset="1" stop-color="#c6c743" />
</linearGradient>
<linearGradient x1="-171.32412955264206" y1="103.18935329300945" x2="199.40761672597228" y2="15.38188517925356" gradientUnits="userSpaceOnUse" id="d23">
<stop offset="0" stop-color="#4cae4c" />
<stop offset="1" stop-color="#3ac7d6" />
</linearGradient>
<linearGradient x1="-13.975255517060972" y1="199.511133105982" x2="18.63785643169468" y2="199.12968213611836" gradientUnits="userSpaceOnUse" id="d24">
<stop offset="0" stop-color="#dc4748" />
<stop offset="1" stop-color="#a47ec7" />
</linearGradient>
<linearGradient x1="-16.5835301542907" y1="199.31128048262028" x2="78.57660237664385" y2="183.91769234889506" gradientUnits="userSpaceOnUse" id="d25">
<stop offset="0" stop-color="#dc4748" />
<stop offset="1" stop-color="#9d6f66" />
</linearGradient>
<linearGradient x1="-17.968259102842225" y1="199.19121884463965" x2="121.046407832778" y2="159.20982115052067" gradientUnits="userSpaceOnUse" id="d26">
<stop offset="0" stop-color="#dc4748" />
<stop offset="1" stop-color="#e78bcb" />
</linearGradient>
<linearGradient x1="-30.464601208714058" y1="197.66615307936263" x2="155.69915862210286" y2="125.52996456770494" gradientUnits="userSpaceOnUse" id="d27">
<stop offset="0" stop-color="#dc4748" />
<stop offset="1" stop-color="#929292" />
</linearGradient>
<linearGradient x1="-34.562084504077" y1="196.99102089875325" x2="195.7686467698625" y2="40.92232815831483" gradientUnits="userSpaceOnUse" id="d28">
<stop offset="0" stop-color="#dc4748" />
<stop offset="1" stop-color="#c6c743" />
</linearGradient>
<linearGradient x1="-36.03427374486598" y1="196.72704723977347" x2="199.33327199976102" y2="16.317066950567103" gradientUnits="userSpaceOnUse" id="d29">
<stop offset="0" stop-color="#dc4748" />
<stop offset="1" stop-color="#3ac7d6" />
</linearGradient>
<linearGradient x1="70.40249407988448" y1="187.19906203646383" x2="76.16436265059008" y2="184.92968896861692" gradientUnits="userSpaceOnUse" id="d30">
<stop offset="0" stop-color="#a47ec7" />
<stop offset="1" stop-color="#9d6f66" />
</linearGradient>
<linearGradient x1="66.02529526287864" y1="188.78734169813848" x2="119.93704355734435" y2="160.04719798460602" gradientUnits="userSpaceOnUse" id="d31">
<stop offset="0" stop-color="#a47ec7" />
<stop offset="1" stop-color="#e78bcb" />
</linearGradient>
<linearGradient x1="59.64361265766254" y1="190.8995533497727" x2="147.49310406777346" y2="135.07695677817495" gradientUnits="userSpaceOnUse" id="d32">
<stop offset="0" stop-color="#a47ec7" />
<stop offset="1" stop-color="#929292" />
</linearGradient>
<linearGradient x1="57.58303231172257" y1="191.53118385732157" x2="194.87679470458852" y2="44.978160096491976" gradientUnits="userSpaceOnUse" id="d33">
<stop offset="0" stop-color="#a47ec7" />
<stop offset="1" stop-color="#c6c743" />
</linearGradient>
<linearGradient x1="56.15770993871995" y1="191.9539309689661" x2="199.20567435049878" y2="17.80728240251802" gradientUnits="userSpaceOnUse" id="d34">
<stop offset="0" stop-color="#a47ec7" />
<stop offset="1" stop-color="#3ac7d6" />
</linearGradient>
<linearGradient x1="112.84982160765983" y1="165.1209186115416" x2="116.17853261819498" y2="162.7960336085711" gradientUnits="userSpaceOnUse" id="d35">
<stop offset="0" stop-color="#9d6f66" />
<stop offset="1" stop-color="#e78bcb" />
</linearGradient>
<linearGradient x1="111.6536954162592" y1="165.93207134214055" x2="142.87039666091542" y2="139.95731405665333" gradientUnits="userSpaceOnUse" id="d36">
<stop offset="0" stop-color="#9d6f66" />
<stop offset="1" stop-color="#929292" />
</linearGradient>
<linearGradient x1="111.23693023067034" y1="166.21174854039947" x2="194.38079897404165" y2="47.07552432223354" gradientUnits="userSpaceOnUse" id="d37">
<stop offset="0" stop-color="#9d6f66" />
<stop offset="1" stop-color="#c6c743" />
</linearGradient>
<linearGradient x1="110.64519421126336" y1="166.60624537499132" x2="199.0678016654812" y2="19.28756957401944" gradientUnits="userSpaceOnUse" id="d38">
<stop offset="0" stop-color="#9d6f66" />
<stop offset="1" stop-color="#3ac7d6" />
</linearGradient>
<linearGradient x1="138.429905252668" y1="144.35082726377902" x2="141.85532133257567" y2="140.98605537297544" gradientUnits="userSpaceOnUse" id="d39">
<stop offset="0" stop-color="#e78bcb" />
<stop offset="1" stop-color="#929292" />
</linearGradient>
<linearGradient x1="138.39002227419164" y1="144.3890637650537" x2="194.26204885421205" y2="47.56318297763231" gradientUnits="userSpaceOnUse" id="d40">
<stop offset="0" stop-color="#e78bcb" />
<stop offset="1" stop-color="#c6c743" />
</linearGradient>
<linearGradient x1="138.19474789546507" y1="144.575971911341" x2="198.9979583962774" y2="19.995313303708055" gradientUnits="userSpaceOnUse" id="d41">
<stop offset="0" stop-color="#e78bcb" />
<stop offset="1" stop-color="#3ac7d6" />
</linearGradient>
<linearGradient x1="193.27345390742104" y1="51.43318009510976" x2="194.24890185509952" y2="47.6168471036031" gradientUnits="userSpaceOnUse" id="d42">
<stop offset="0" stop-color="#929292" />
<stop offset="1" stop-color="#c6c743" />
</linearGradient>
<linearGradient x1="193.26131135398037" y1="51.47878722095012" x2="198.97075212527625" y2="20.26424927555602" gradientUnits="userSpaceOnUse" id="d43">
<stop offset="0" stop-color="#929292" />
<stop offset="1" stop-color="#3ac7d6" />
</linearGradient>
<linearGradient x1="198.58284793385795" y1="23.76662589595443" x2="198.96596463947776" y2="20.31120171437648" gradientUnits="userSpaceOnUse" id="d44">
<stop offset="0" stop-color="#c6c743" />
<stop offset="1" stop-color="#3ac7d6" />
</linearGradient>
</defs>
<rect x="-305" y="-305" width="610.0" height="610.0" fill="#ffffff" fill-opacity="1.0" />
<path d="M200.0,-0.0 A200,200,0,0,0,54.904210068808965,-192.31621802832984 L58.74750477362559,-205.77835329031294 A214.0,214.0,0,0,1,214.0,-0.0 Z" fill="#418bbf" fill-opacity="0.9" />
<path d="M52.978334753441644,-192.85563524759206 A200,200,0,0,0,-158.343022172264,-122.17809676596664 L-169.42703372432248,-130.73056353958432 A214.0,214.0,0,0,1,56.68681818618256,-206.3555297149235 Z" fill="#ff9232" fill-opacity="0.9" />
<path d="M-159.55686569187674,-120.58858408068487 A200,200,0,0,0,-111.48422827953594,166.0459781052113 L-119.28812425910347,177.6691965725761 A214.0,214.0,0,0,1,-170.7258462903081,-129.0297849663328 Z" fill="#4cae4c" fill-opacity="0.9" />
<path d="M-109.81822200771283,167.15249957767517 A200,200,0,0,0,1.3391324678773828,199.99551676033508 L1.4328717406287996,213.99520293355855 A214.0,214.0,0,0,1,-117.50549754825273,178.85317454811243 Z" fill="#dc4748" fill-opacity="0.9" />
<path d="M3.338987346995803,199.97212596633713 A200,200,0,0,0,72.36086665578786,186.45081114552247 L77.42612732169302,199.50236792570905 A214.0,214.0,0,0,1,3.5727164612855096,213.97017478398075 Z" fill="#a47ec7" fill-opacity="0.9" />
<path d="M74.2217256790807,185.71789207617906 A200,200,0,0,0,113.69881428501405,164.5374718116876 L121.65773128496504,176.05509483850574 A214.0,214.0,0,0,1,79.41724647661636,198.7181445215116 Z" fill="#9d6f66" fill-opacity="0.9" />
<path d="M115.33847668701614,163.39227581351156 A200,200,0,0,0,139.4375687542629,143.37769847469377 L149.19819856706133,153.41413736792234 A214.0,214.0,0,0,1,123.41217005510728,174.82973512045737 Z" fill="#e78bcb" fill-opacity="0.9" />
<path d="M140.8643500225073,141.97617720144652 A200,200,0,0,0,193.52051532606473,50.49564484125676 L207.06695139888927,54.03033998014474 A214.0,214.0,0,0,1,150.72485452408282,151.91450960554778 Z" fill="#929292" fill-opacity="0.9" />
<path d="M194.01578741344554,48.55794718005183 A200,200,0,0,0,198.6692315882678,23.0333762207631 L212.57607779944655,24.645712556216516 A214.0,214.0,0,0,1,207.59689253238673,51.957003482655466 Z" fill="#c6c743" fill-opacity="0.9" />
<path d="M198.88962813279772,21.04556535703967 A200,200,0,0,0,199.99000008333306,1.9999666668336944 L213.9893000891664,2.139964333512053 A214.0,214.0,0,0,1,212.81190210209357,22.518754932032447 Z" fill="#3ac7d6" fill-opacity="0.9" />
<path d="M78.4899226594168,-181.77824963652492 A198.0,198.0,0,0,0,54.35516796812083,-190.39305584804654 C21.742067187248335,-76.15722233921862,20.979420562362893,-76.37083155804646,52.44855140590723,-190.92707889511615 A198.0,198.0,0,0,0,27.350297732159337,-196.1019153755573 C10.940119092863736,-78.44076615022293,31.395969063766724,-72.71129985460998,78.4899226594168,-181.77824963652492 Z" fill="url(#d0)" fill-opacity="0.6" />
<path d="M168.47742285534707,-104.01614292032065 A198.0,198.0,0,0,0,78.4899226594168,-181.77824963652492 C31.395969063766724,-72.71129985460998,-79.01712747200587,-5.378993035204296,-197.54281868001465,-13.44748258801074 A198.0,198.0,0,0,0,-169.61088825711565,102.15745976007935 C-67.84435530284627,40.86298390403174,67.39096914213883,-41.60645716812826,168.47742285534707,-104.01614292032065 Z" fill="url(#d1)" fill-opacity="0.6" />
<path d="M182.9924239216801,-75.61595590395004 A198.0,198.0,0,0,0,168.47742285534707,-104.01614292032065 C67.39096914213883,-41.60645716812826,-26.592673732273184,74.60207573364744,-66.48168433068295,186.5051893341186 A198.0,198.0,0,0,0,-35.673931007417316,194.75977676737574 C-14.269572402966928,77.9039107069503,73.19696956867205,-30.246382361580018,182.9924239216801,-75.61595590395004 Z" fill="url(#d2)" fill-opacity="0.6" />
<path d="M186.87759050200214,-65.42756428422199 A198.0,198.0,0,0,0,182.9924239216801,-75.61595590395004 C73.19696956867205,-30.246382361580018,18.02017565891135,77.12271564994312,45.05043914727837,192.80678912485777 A198.0,198.0,0,0,0,55.596132839332746,190.03439165927642 C22.2384531357331,76.01375666371057,74.75103620080085,-26.171025713688795,186.87759050200214,-65.42756428422199 Z" fill="url(#d3)" fill-opacity="0.6" />
<path d="M192.80857142179445,-45.042810594886234 A198.0,198.0,0,0,0,186.87759050200214,-65.42756428422199 C74.75103620080085,-26.171025713688795,36.49968911503629,70.2880693610637,91.24922278759072,175.72017340265924 A198.0,198.0,0,0,0,109.53874226915072,164.9401829212414 C43.81549690766029,65.97607316849655,77.12342856871778,-18.017124237954494,192.80857142179445,-45.042810594886234 Z" fill="url(#d4)" fill-opacity="0.6" />
<path d="M195.07213496212844,-33.924359409090414 A198.0,198.0,0,0,0,192.80857142179445,-45.042810594886234 C77.12342856871778,-18.017124237954494,51.35573978689863,60.29285190584666,128.38934946724657,150.73212976461664 A198.0,198.0,0,0,0,136.8128004165104,143.13021219222756 C54.72512016660417,57.252084876891026,78.02885398485138,-13.569743763636167,195.07213496212844,-33.924359409090414 Z" fill="url(#d5)" fill-opacity="0.6" />
<path d="M197.53593471842578,-13.548228478949868 A198.0,198.0,0,0,0,195.07213496212844,-33.924359409090414 C78.02885398485138,-13.569743763636167,74.00998678015932,28.19861444824271,185.0249669503983,70.49653612060678 A198.0,198.0,0,0,0,191.32869824044056,50.963999348740614 C76.53147929617623,20.385599739496246,79.01437388737031,-5.419291391579947,197.53593471842578,-13.548228478949868 Z" fill="url(#d6)" fill-opacity="0.6" />
<path d="M197.75874165739924,-9.771391819082314 A198.0,198.0,0,0,0,197.53593471842578,-13.548228478949868 C79.01437388737031,-5.419291391579947,78.44462226914035,10.912434973546972,196.11155567285087,27.281087433867427 A198.0,198.0,0,0,0,196.59701945451937,23.528959636994884 C78.63880778180776,9.411583854797954,79.1034966629597,-3.908556727632926,197.75874165739924,-9.771391819082314 Z" fill="url(#d7)" fill-opacity="0.6" />
<path d="M198.0,-0.0 A198.0,198.0,0,0,0,197.75874165739924,-9.771391819082314 C79.1034966629597,-3.908556727632926,79.06045660523276,4.699383084204636,197.65114151308188,11.74845771051159 A198.0,198.0,0,0,0,197.9901000824997,1.9799670001653575 C79.19604003299989,0.7919868000661431,79.2,-0.0,198.0,-0.0 Z" fill="url(#d8)" fill-opacity="0.6" />
<path d="M-64.98324898120052,-187.0325569301968 A198.0,198.0,0,0,0,-156.7595919505413,-120.95631579830705 C-62.70383678021653,-48.38252631932282,-63.1845188139832,-47.75307929595121,-157.961297034958,-119.38269823987802 A198.0,198.0,0,0,0,-197.54281868001465,-13.44748258801074 C-79.01712747200587,-5.378993035204296,-25.99329959248021,-74.81302277207872,-64.98324898120052,-187.0325569301968 Z" fill="url(#d9)" fill-opacity="0.6" />
<path d="M-36.199647107461956,-194.66274823215463 A198.0,198.0,0,0,0,-64.98324898120052,-187.0325569301968 C-25.99329959248021,-74.81302277207872,-37.479784966236366,69.77037852043432,-93.69946241559092,174.4259463010858 A198.0,198.0,0,0,0,-66.48168433068295,186.5051893341186 C-26.592673732273184,74.60207573364744,-14.479858842984783,-77.86509929286186,-36.199647107461956,-194.66274823215463 Z" fill="url(#d10)" fill-opacity="0.6" />
<path d="M-18.43098854542962,-197.1403019710537 A198.0,198.0,0,0,0,-36.199647107461956,-194.66274823215463 C-14.479858842984783,-77.86509929286186,10.965376763431486,78.437239321868,27.41344190857871,196.09309830467 A198.0,198.0,0,0,0,45.05043914727837,192.80678912485777 C18.02017565891135,77.12271564994312,-7.372395418171848,-78.85612078842149,-18.43098854542962,-197.1403019710537 Z" fill="url(#d11)" fill-opacity="0.6" />
<path d="M-15.931080183679047,-197.3580519871971 A198.0,198.0,0,0,0,-18.43098854542962,-197.1403019710537 C-7.372395418171848,-78.85612078842149,35.60597247331295,70.74499787426444,89.01493118328239,176.8624946856611 A198.0,198.0,0,0,0,91.24922278759072,175.72017340265924 C36.49968911503629,70.2880693610637,-6.372432073471619,-78.94322079487884,-15.931080183679047,-197.3580519871971 Z" fill="url(#d12)" fill-opacity="0.6" />
<path d="M-11.012269950792405,-197.69352521145166 A198.0,198.0,0,0,0,-15.931080183679047,-197.3580519871971 C-6.372432073471619,-78.94322079487884,49.838632106946434,61.552828933432856,124.59658026736608,153.88207233358213 A198.0,198.0,0,0,0,128.38934946724657,150.73212976461664 C51.35573978689863,60.29285190584666,-4.404907980316962,-79.07741008458066,-11.012269950792405,-197.69352521145166 Z" fill="url(#d13)" fill-opacity="0.6" />
<path d="M14.056036064073092,-197.50045025307026 A198.0,198.0,0,0,0,-11.012269950792405,-197.69352521145166 C-4.404907980316962,-79.07741008458066,69.85367690655406,37.32430605697521,174.63419226638513,93.31076514243802 A198.0,198.0,0,0,0,185.0249669503983,70.49653612060678 C74.00998678015932,28.19861444824271,5.622414425629238,-79.00018010122811,14.056036064073092,-197.50045025307026 Z" fill="url(#d14)" fill-opacity="0.6" />
<path d="M23.89191147851878,-196.55324104654858 A198.0,198.0,0,0,0,14.056036064073092,-197.50045025307026 C5.622414425629238,-79.00018010122811,77.80250910338395,14.81248045459831,194.5062727584599,37.031201136495774 A198.0,198.0,0,0,0,196.11155567285087,27.281087433867427 C78.44462226914035,10.912434973546972,9.556764591407513,-78.62129641861944,23.89191147851878,-196.55324104654858 Z" fill="url(#d15)" fill-opacity="0.6" />
<path d="M27.350297732159337,-196.1019153755573 A198.0,198.0,0,0,0,23.89191147851878,-196.55324104654858 C9.556764591407513,-78.62129641861944,78.96541622348502,6.09122653098441,197.41354055871255,15.228066327461024 A198.0,198.0,0,0,0,197.65114151308188,11.74845771051159 C79.06045660523276,4.699383084204636,10.940119092863736,-78.44076615022293,27.350297732159337,-196.1019153755573 Z" fill="url(#d16)" fill-opacity="0.6" />
<path d="M-124.43933598643311,154.00925835564436 A198.0,198.0,0,0,0,-110.36938599674059,164.3855183241592 C-44.147754398696236,65.75420732966369,-43.488015915054284,66.19238983275936,-108.7200397876357,165.4809745818984 A198.0,198.0,0,0,0,-93.69946241559092,174.4259463010858 C-37.479784966236366,69.77037852043432,-49.77573439457325,61.603703342257745,-124.43933598643311,154.00925835564436 Z" fill="url(#d17)" fill-opacity="0.6" />
<path d="M-131.32640202033136,148.18021505043887 A198.0,198.0,0,0,0,-124.43933598643311,154.00925835564436 C-49.77573439457325,61.603703342257745,7.380591146951094,78.85535412590288,18.451477867377733,197.1383853147572 A198.0,198.0,0,0,0,27.41344190857871,196.09309830467 C10.965376763431486,78.437239321868,-52.53056080813255,59.27208602017555,-131.32640202033136,148.18021505043887 Z" fill="url(#d18)" fill-opacity="0.6" />
<path d="M-140.3279728681182,139.6855756000765 A198.0,198.0,0,0,0,-131.32640202033136,148.18021505043887 C-52.53056080813255,59.27208602017555,31.116334541150962,72.83140617016244,77.7908363528774,182.0785154254061 A198.0,198.0,0,0,0,89.01493118328239,176.8624946856611 C35.60597247331295,70.74499787426444,-56.131189147247284,55.874230240030606,-140.3279728681182,139.6855756000765 Z" fill="url(#d19)" fill-opacity="0.6" />
<path d="M-144.53105471306995,135.3320886690499 A198.0,198.0,0,0,0,-140.3279728681182,139.6855756000765 C-56.131189147247284,55.874230240030606,47.93437750178009,63.04708917560619,119.83594375445023,157.61772293901547 A198.0,198.0,0,0,0,124.59658026736608,153.88207233358213 C49.838632106946434,61.552828933432856,-57.812421885227984,54.13283546761997,-144.53105471306995,135.3320886690499 Z" fill="url(#d20)" fill-opacity="0.6" />
<path d="M-167.25652474480847,105.96817885709497 A198.0,198.0,0,0,0,-144.53105471306995,135.3320886690499 C-57.812421885227984,54.13283546761997,61.65686681435274,49.70986596881116,154.14216703588184,124.27466492202788 A198.0,198.0,0,0,0,174.63419226638513,93.31076514243802 C69.85367690655406,37.32430605697521,-66.9026098979234,42.38727154283799,-167.25652474480847,105.96817885709497 Z" fill="url(#d21)" fill-opacity="0.6" />
<path d="M-169.1298376315887,102.95192092774394 A198.0,198.0,0,0,0,-167.25652474480847,105.96817885709497 C-66.9026098979234,42.38727154283799,77.52438412086555,16.205241950692674,193.81096030216386,40.51310487673168 A198.0,198.0,0,0,0,194.5062727584599,37.031201136495774 C77.80250910338395,14.81248045459831,-67.6519350526355,41.18076837109758,-169.1298376315887,102.95192092774394 Z" fill="url(#d22)" fill-opacity="0.6" />
<path d="M-169.61088825711565,102.15745976007935 A198.0,198.0,0,0,0,-169.1298376315887,102.95192092774394 C-67.6519350526355,41.18076837109758,78.93597571190537,6.461558512424573,197.33993927976343,16.15389628106143 A198.0,198.0,0,0,0,197.41354055871255,15.228066327461024 C78.96541622348502,6.09122653098441,-67.84435530284627,40.86298390403174,-169.61088825711565,102.15745976007935 Z" fill="url(#d23)" fill-opacity="0.6" />
<path d="M-13.835502961890363,197.51602177492217 A198.0,198.0,0,0,0,1.325741143198609,197.99556159273175 C0.5302964572794436,79.19822463709271,1.3222389894103381,79.1889618826695,3.305597473525845,197.97240470667376 A198.0,198.0,0,0,0,18.451477867377733,197.1383853147572 C7.380591146951094,78.85535412590288,-5.534201184756146,79.00640870996887,-13.835502961890363,197.51602177492217 Z" fill="url(#d24)" fill-opacity="0.6" />
<path d="M-16.417694852747793,197.31816767779407 A198.0,198.0,0,0,0,-13.835502961890363,197.51602177492217 C-5.534201184756146,79.00640870996887,30.16108760963367,73.2321568315723,75.40271902408418,183.08039207893074 A198.0,198.0,0,0,0,77.7908363528774,182.0785154254061 C31.116334541150962,72.83140617016244,-6.567077941099118,78.92726707111763,-16.417694852747793,197.31816767779407 Z" fill="url(#d25)" fill-opacity="0.6" />
<path d="M-17.7885765118138,197.19930665619327 A198.0,198.0,0,0,0,-16.417694852747793,197.31816767779407 C-6.567077941099118,78.92726707111763,47.49506924870837,63.37869040190399,118.73767312177091,158.44672600475997 A198.0,198.0,0,0,0,119.83594375445023,157.61772293901547 C47.93437750178009,63.04708917560619,-7.115430604725521,78.87972266247732,-17.7885765118138,197.19930665619327 Z" fill="url(#d26)" fill-opacity="0.6" />
<path d="M-30.159955196626917,195.68949154856898 A198.0,198.0,0,0,0,-17.7885765118138,197.19930665619327 C-7.115430604725521,78.87972266247732,58.4072692108383,53.49047488415728,146.01817302709574,133.7261872103932 A198.0,198.0,0,0,0,154.14216703588184,124.27466492202788 C61.65686681435274,49.70986596881116,-12.063982078650767,78.2757966194276,-30.159955196626917,195.68949154856898 Z" fill="url(#d27)" fill-opacity="0.6" />
<path d="M-34.21646365903623,195.02111068976572 A198.0,198.0,0,0,0,-30.159955196626917,195.68949154856898 C-12.063982078650767,78.2757966194276,77.17121070301705,17.811351398210824,192.92802675754263,44.52837849552706 A198.0,198.0,0,0,0,193.81096030216386,40.51310487673168 C77.52438412086555,16.205241950692674,-13.686585463614492,78.0084442759063,-34.21646365903623,195.02111068976572 Z" fill="url(#d28)" fill-opacity="0.6" />
<path d="M-35.673931007417316,194.75977676737574 A198.0,198.0,0,0,0,-34.21646365903623,195.02111068976572 C-13.686585463614492,78.0084442759063,78.88544704279752,7.051683831397135,197.2136176069938,17.629209578492837 A198.0,198.0,0,0,0,197.33993927976343,16.15389628106143 C78.93597571190537,6.461558512424573,-14.269572402966928,77.9039107069503,-35.673931007417316,194.75977676737574 Z" fill="url(#d29)" fill-opacity="0.6" />
<path d="M69.69846913908563,185.3270714160992 A198.0,198.0,0,0,0,71.63725798922998,184.58630303406724 C28.654903195691993,73.8345212136269,29.39180336891596,73.54428526216691,73.4795084222899,183.86071315541727 A198.0,198.0,0,0,0,75.40271902408418,183.08039207893074 C30.16108760963367,73.2321568315723,27.879387655634254,74.13082856643967,69.69846913908563,185.3270714160992 Z" fill="url(#d30)" fill-opacity="0.6" />
<path d="M65.36504231024985,186.8994682811571 A198.0,198.0,0,0,0,69.69846913908563,185.3270714160992 C27.879387655634254,74.13082856643967,46.00669891680521,64.46722930899415,115.01674729201302,161.16807327248537 A198.0,198.0,0,0,0,118.73767312177091,158.44672600475997 C47.49506924870837,63.37869040190399,26.14601692409994,74.75978731246285,65.36504231024985,186.8994682811571 Z" fill="url(#d31)" fill-opacity="0.6" />
<path d="M59.04717653108591,188.990557816275 A198.0,198.0,0,0,0,65.36504231024985,186.8994682811571 C26.14601692409994,74.75978731246285,56.57667707772251,55.42309636643472,141.44169269430625,138.5577409160868 A198.0,198.0,0,0,0,146.01817302709574,133.7261872103932 C58.4072692108383,53.49047488415728,23.618870612434364,75.59622312651,59.04717653108591,188.990557816275 Z" fill="url(#d32)" fill-opacity="0.6" />
<path d="M57.007201988605345,189.61587201874835 A198.0,198.0,0,0,0,59.04717653108591,188.990557816275 C23.618870612434364,75.59622312651,76.97479639372051,18.641907631604482,192.43699098430125,46.604769079011206 A198.0,198.0,0,0,0,192.92802675754263,44.52837849552706 C77.17121070301705,17.811351398210824,22.80288079544214,75.84634880749934,57.007201988605345,189.61587201874835 Z" fill="url(#d33)" fill-opacity="0.6" />
<path d="M55.596132839332746,190.03439165927642 A198.0,198.0,0,0,0,57.007201988605345,189.61587201874835 C22.80288079544214,75.84634880749934,78.83084945953055,7.637877551311698,197.0771236488264,19.094693878279244 A198.0,198.0,0,0,0,197.2136176069938,17.629209578492837 C78.88544704279752,7.051683831397135,22.2384531357331,76.01375666371057,55.596132839332746,190.03439165927642 Z" fill="url(#d34)" fill-opacity="0.6" />
<path d="M111.72132339158324,163.4697094254262 A198.0,198.0,0,0,0,112.56182614216391,162.8920970935707 C45.02473045686557,65.15683883742828,45.67403676805839,64.70334122215058,114.18509192014598,161.75835305537646 A198.0,198.0,0,0,0,115.01674729201302,161.16807327248537 C46.00669891680521,64.46722930899415,44.688529356633296,65.38788377017049,111.72132339158324,163.4697094254262 Z" fill="url(#d35)" fill-opacity="0.6" />
<path d="M110.53715846209661,164.27275062871914 A198.0,198.0,0,0,0,111.72132339158324,163.4697094254262 C44.688529356633296,65.38788377017049,56.17470724769998,55.83047792769827,140.43676811924993,139.57619481924567 A198.0,198.0,0,0,0,141.44169269430625,138.5577409160868 C56.57667707772251,55.42309636643472,44.21486338483865,65.70910025148765,110.53715846209661,164.27275062871914 Z" fill="url(#d36)" fill-opacity="0.6" />
<path d="M110.12456092836364,164.54963105499547 A198.0,198.0,0,0,0,110.53715846209661,164.27275062871914 C44.21486338483865,65.70910025148765,76.92777134626797,18.835020459142395,192.31942836566992,47.08755114785599 A198.0,198.0,0,0,0,192.43699098430125,46.604769079011206 C76.97479639372051,18.641907631604482,44.04982437134546,65.81985242199819,110.12456092836364,164.54963105499547 Z" fill="url(#d37)" fill-opacity="0.6" />
<path d="M109.53874226915072,164.9401829212414 A198.0,198.0,0,0,0,110.12456092836364,164.54963105499547 C44.04982437134546,65.81985242199819,78.80319152492586,7.91814406826839,197.00797881231463,19.795360170670975 A198.0,198.0,0,0,0,197.0771236488264,19.094693878279244 C78.83084945953055,7.637877551311698,43.81549690766029,65.97607316849655,109.53874226915072,164.9401829212414 Z" fill="url(#d38)" fill-opacity="0.6" />
<path d="M137.0456062001413,142.9073189911412 A198.0,198.0,0,0,0,138.04319306672028,141.94392148994683 C55.21727722668811,56.777568595978735,55.7822826089129,56.222566171772826,139.45570652228224,140.55641542943206 A198.0,198.0,0,0,0,140.43676811924993,139.57619481924567 C56.17470724769998,55.83047792769827,54.81824248005652,57.162927596456484,137.0456062001413,142.9073189911412 Z" fill="url(#d39)" fill-opacity="0.6" />
<path d="M137.00612205144972,142.94517312740317 A198.0,198.0,0,0,0,137.0456062001413,142.9073189911412 C54.81824248005652,57.162927596456484,76.9225651346194,18.856271453026828,192.3064128365485,47.14067863256707 A198.0,198.0,0,0,0,192.31942836566992,47.08755114785599 C76.92777134626797,18.835020459142395,54.80244882057989,57.17806925096127,137.00612205144972,142.94517312740317 Z" fill="url(#d40)" fill-opacity="0.6" />
<path d="M136.8128004165104,143.13021219222756 A198.0,198.0,0,0,0,137.00612205144972,142.94517312740317 C54.80244882057989,57.17806925096127,78.7924178416094,8.024642713120183,196.9810446040235,20.061606782800457 A198.0,198.0,0,0,0,197.00797881231463,19.795360170670975 C78.80319152492586,7.91814406826839,54.72512016660417,57.252084876891026,136.8128004165104,143.13021219222756 Z" fill="url(#d41)" fill-opacity="0.6" />
<path d="M191.3407193683468,50.918848294158664 A198.0,198.0,0,0,0,191.5853101728041,49.99068839284419 C76.63412406912164,19.996275357137677,76.83025181572444,19.228947083300525,192.07562953931108,48.07236770825131 A198.0,198.0,0,0,0,192.3064128365485,47.14067863256707 C76.9225651346194,18.856271453026828,76.53628774733873,20.367539317663468,191.3407193683468,50.918848294158664 Z" fill="url(#d42)" fill-opacity="0.6" />
<path d="M191.32869824044056,50.963999348740614 A198.0,198.0,0,0,0,191.3407193683468,50.918848294158664 C76.53628774733873,20.367539317663468,78.7905219972332,8.043235878893087,196.97630499308298,20.108089697232717 A198.0,198.0,0,0,0,196.9810446040235,20.061606782800457 C78.7924178416094,8.024642713120183,76.53147929617623,20.385599739496246,191.32869824044056,50.963999348740614 Z" fill="url(#d43)" fill-opacity="0.6" />
<path d="M196.59701945451937,23.528959636994884 A198.0,198.0,0,0,0,196.6825392723851,22.803042458555467 C78.67301570895404,9.121216983422187,78.76029274058791,8.33404388138771,196.90073185146977,20.835109703469275 A198.0,198.0,0,0,0,196.97630499308298,20.108089697232717 C78.7905219972332,8.043235878893087,78.63880778180776,9.411583854797954,196.59701945451937,23.528959636994884 Z" fill="url(#d44)" fill-opacity="0.6" />
<text x="220.00000000000003" y="0" font-size="10" text-anchor="start" dominant-baseline="middle" transform="rotate(-37.033263)" font-family="Arial"><tspan x="220.00000000000003" dy="0em">Artificial</tspan><tspan x="220.00000000000003" dy="1em">Intelligence</tspan></text>
<text x="-220.00000000000003" y="0" font-size="10" text-anchor="end" dominant-baseline="middle" transform="rotate(71.507217)" font-family="Arial">Climate Change</text>
<text x="-220.00000000000003" y="0" font-size="10" text-anchor="end" dominant-baseline="middle" transform="rotate(-9.520700)" font-family="Arial">Foundations</text>
<text x="-220.0" y="0" font-size="10" text-anchor="end" dominant-baseline="middle" transform="rotate(-73.539477)" font-family="Arial">Risk Policy</text>
<text x="220.00000000000003" y="0" font-size="10" text-anchor="start" dominant-baseline="middle" transform="rotate(-281.083821)" font-family="Arial">Pandemics</text>
<text x="220.0" y="0" font-size="10" text-anchor="start" dominant-baseline="middle" transform="rotate(-298.214642)" font-family="Arial">Transhumanism</text>
<text x="220.0" y="0" font-size="10" text-anchor="start" dominant-baseline="middle" transform="rotate(-309.710027)" font-family="Arial"><tspan x="220.0" dy="0em">Reasoning</tspan><tspan x="220.0" dy="1em">and Risk</tspan></text>
<text x="220.00000000000003" y="0" font-size="10" text-anchor="start" dominant-baseline="middle" transform="rotate(-330.075283)" font-family="Arial"><tspan x="220.00000000000003" dy="0em">Global Resilience</tspan><tspan x="220.00000000000003" dy="1em">and Food Security</tspan></text>
<text x="220.00000000000003" y="0" font-size="10" text-anchor="start" dominant-baseline="middle" transform="rotate(-349.667749)" font-family="Arial"><tspan x="220.00000000000003" dy="0em">Risk management</tspan><tspan x="220.00000000000003" dy="1em">and mitigation</tspan></text>
<text x="220.00000000000003" y="0" font-size="10" text-anchor="start" dominant-baseline="middle" transform="rotate(-356.693375)" font-family="Arial">Bioengineering</text>
</svg>