<?xml version="1.0" standalone="no"?>
<svg xmlns="http://www.w3.org/2000/svg" xmlns:xlink="http://www.w3.org/1999/xlink" width="555pt" height="789pt" viewBox="0.00 0.00 554.57 789">
<g id="graph0" class="graph" transform="translate(42.988955053732724,719.1680056148803) scale(0.8467453123625271)" data-name="G">

<polygon fill="white" stroke="none" points="-4,4 -4,-785 550.57,-785 550.57,4 -4,4"/>
<!-- load_data -->
<g id="node1" class="node" pointer-events="visible" data-name="load_data">

<polygon fill="none" stroke="black" points="221.69,-781 0.1,-781 0.1,-745 221.69,-745 221.69,-781"/>
<text text-anchor="middle" x="110.9" y="-758.8" font-family="Times,serif" font-size="14.00">Download from OpenAlex (n=3437)</text>
</g>
<!-- filter_unconnected_documents -->
<g id="node2" class="node" pointer-events="visible" data-name="filter_unconnected_documents">

<polygon fill="none" stroke="black" points="211.17,-708 10.63,-708 10.63,-672 211.17,-672 211.17,-708"/>
<text text-anchor="middle" x="110.9" y="-685.8" font-family="Times,serif" font-size="14.00">Exclude unconnected documents</text>
</g>
<!-- load_data&#45;&gt;filter_unconnected_documents -->
<g id="edge1" class="edge" data-name="load_data-&gt;filter_unconnected_documents">

<path fill="none" stroke="black" d="M110.9,-744.81C110.9,-737.23 110.9,-728.1 110.9,-719.54"/>
<polygon fill="black" stroke="black" points="114.4,-719.54 110.9,-709.54 107.4,-719.54 114.4,-719.54"/>
</g>
<!-- filter_clusters -->
<g id="node3" class="node" pointer-events="visible" data-name="filter_clusters">

<polygon fill="none" stroke="black" points="264.86,-619.2 122.93,-619.2 122.93,-583.2 264.86,-583.2 264.86,-619.2"/>
<text text-anchor="middle" x="193.9" y="-597" font-family="Times,serif" font-size="14.00">Exclude small clusters</text>
</g>
<!-- filter_unconnected_documents&#45;&gt;filter_clusters -->
<g id="edge2" class="edge" data-name="filter_unconnected_documents-&gt;filter_clusters">

<path fill="none" stroke="black" d="M127.3,-671.85C139.38,-659.21 156.01,-641.82 169.64,-627.57"/>
<polygon fill="black" stroke="black" points="171.82,-630.35 176.2,-620.7 166.76,-625.51 171.82,-630.35"/>
<text text-anchor="middle" x="181.35" y="-641.4" font-family="Times,serif" font-size="14.00">n=1692</text>
</g>
<!-- excluded_documents -->
<g id="node7" class="node" pointer-events="visible" data-name="excluded_documents">

<polygon fill="none" stroke="black" points="341.97,-264 77.82,-264 77.82,-228 341.97,-228 341.97,-264"/>
<text text-anchor="middle" x="209.9" y="-241.8" font-family="Times,serif" font-size="14.00">Provisionally excluded documents (n=2382)</text>
</g>
<!-- filter_unconnected_documents&#45;&gt;excluded_documents -->
<g id="edge3" class="edge" data-name="filter_unconnected_documents-&gt;excluded_documents">

<path fill="none" stroke="black" d="M105.75,-671.55C101.07,-654.15 94.9,-626.56 94.9,-602.2 94.9,-602.2 94.9,-602.2 94.9,-333.8 94.9,-303.97 119.86,-283.09 146.52,-269.3"/>
<polygon fill="black" stroke="black" points="147.92,-272.51 155.41,-265.02 144.88,-266.21 147.92,-272.51"/>
<text text-anchor="middle" x="116.35" y="-463.8" font-family="Times,serif" font-size="14.00">n=1745</text>
</g>
<!-- filter_low_links -->
<g id="node4" class="node" pointer-events="visible" data-name="filter_low_links">

<polygon fill="none" stroke="black" points="433.19,-530.4 180.6,-530.4 180.6,-494.4 433.19,-494.4 433.19,-530.4"/>
<text text-anchor="middle" x="306.9" y="-508.2" font-family="Times,serif" font-size="14.00">Exclude documents with low link strength</text>
</g>
<!-- filter_clusters&#45;&gt;filter_low_links -->
<g id="edge4" class="edge" data-name="filter_clusters-&gt;filter_low_links">

<path fill="none" stroke="black" d="M216.49,-582.84C233.35,-569.89 256.61,-552.03 275.31,-537.67"/>
<polygon fill="black" stroke="black" points="277.34,-540.52 283.14,-531.65 273.08,-534.96 277.34,-540.52"/>
<text text-anchor="middle" x="281.35" y="-552.6" font-family="Times,serif" font-size="14.00">n=1663</text>
</g>
<!-- filter_clusters&#45;&gt;excluded_documents -->
<g id="edge11" class="edge" data-name="filter_clusters-&gt;excluded_documents">

<path fill="none" stroke="black" d="M180.02,-582.71C168.12,-565.94 152.9,-539.4 152.9,-513.4 152.9,-513.4 152.9,-513.4 152.9,-333.8 152.9,-310.53 167.39,-288.65 181.76,-272.69"/>
<polygon fill="black" stroke="black" points="184.21,-275.19 188.6,-265.54 179.15,-270.35 184.21,-275.19"/>
<text text-anchor="middle" x="167.35" y="-419.4" font-family="Times,serif" font-size="14.00">n=29</text>
</g>
<!-- filter_unrelated_clusters -->
<g id="node5" class="node" pointer-events="visible" data-name="filter_unrelated_clusters">

<polygon fill="none" stroke="black" points="486.37,-441.6 237.43,-441.6 237.43,-405.6 486.37,-405.6 486.37,-441.6"/>
<text text-anchor="middle" x="361.9" y="-419.4" font-family="Times,serif" font-size="14.00">Exclude unrelated clusters (shallow scan)</text>
</g>
<!-- filter_low_links&#45;&gt;filter_unrelated_clusters -->
<g id="edge6" class="edge" data-name="filter_low_links-&gt;filter_unrelated_clusters">

<path fill="none" stroke="black" d="M317.76,-494.25C325.47,-482.09 335.97,-465.51 344.8,-451.58"/>
<polygon fill="black" stroke="black" points="347.66,-453.61 350.06,-443.29 341.75,-449.86 347.66,-453.61"/>
<text text-anchor="middle" x="360.35" y="-463.8" font-family="Times,serif" font-size="14.00">n=1439</text>
</g>
<!-- filter_low_links&#45;&gt;excluded_documents -->
<g id="edge5" class="edge" data-name="filter_low_links-&gt;excluded_documents">

<path fill="none" stroke="black" d="M278.53,-494.03C261.07,-481.7 239.99,-463.48 228.9,-441.6 201.7,-387.93 203.06,-315.3 206.46,-275.68"/>
<polygon fill="black" stroke="black" points="209.94,-276.08 207.44,-265.78 202.98,-275.39 209.94,-276.08"/>
<text text-anchor="middle" x="229.85" y="-375" font-family="Times,serif" font-size="14.00">n=224</text>
</g>
<!-- filter_unrelated_clusters_deep -->
<g id="node6" class="node" pointer-events="visible" data-name="filter_unrelated_clusters_deep">

<polygon fill="none" stroke="black" points="546.74,-352.8 315.05,-352.8 315.05,-316.8 546.74,-316.8 546.74,-352.8"/>
<text text-anchor="middle" x="430.9" y="-330.6" font-family="Times,serif" font-size="14.00">Exclude unrelated clusters (deep scan)</text>
</g>
<!-- filter_unrelated_clusters&#45;&gt;filter_unrelated_clusters_deep -->
<g id="edge8" class="edge" data-name="filter_unrelated_clusters-&gt;filter_unrelated_clusters_deep">

<path fill="none" stroke="black" d="M375.53,-405.45C385.39,-393.05 398.89,-376.07 410.09,-361.98"/>
<polygon fill="black" stroke="black" points="412.63,-364.4 416.12,-354.4 407.15,-360.05 412.63,-364.4"/>
<text text-anchor="middle" x="423.35" y="-375" font-family="Times,serif" font-size="14.00">n=1102</text>
</g>
<!-- filter_unrelated_clusters&#45;&gt;excluded_documents -->
<g id="edge7" class="edge" data-name="filter_unrelated_clusters-&gt;excluded_documents">

<path fill="none" stroke="black" d="M333.35,-405.32C313.86,-392.53 288.34,-373.76 270,-352.8 249.32,-329.17 232.39,-297.3 221.83,-274.73"/>
<polygon fill="black" stroke="black" points="225.12,-273.51 217.79,-265.86 218.74,-276.41 225.12,-273.51"/>
<text text-anchor="middle" x="287.85" y="-330.6" font-family="Times,serif" font-size="14.00">n=337</text>
</g>
<!-- filter_unrelated_clusters_deep&#45;&gt;excluded_documents -->
<g id="edge9" class="edge" data-name="filter_unrelated_clusters_deep-&gt;excluded_documents">

<path fill="none" stroke="black" d="M386.44,-316.34C351.3,-302.54 302.09,-283.21 264.54,-268.46"/>
<polygon fill="black" stroke="black" points="266.28,-265.38 255.69,-264.99 263.72,-271.9 266.28,-265.38"/>
<text text-anchor="middle" x="354.35" y="-286.2" font-family="Times,serif" font-size="14.00">n=47</text>
</g>
<!-- final_data -->
<g id="node9" class="node" pointer-events="visible" data-name="final_data">

<polygon fill="none" stroke="black" points="528.92,-141.6 332.88,-141.6 332.88,-105.6 528.92,-105.6 528.92,-141.6"/>
<text text-anchor="middle" x="430.9" y="-119.4" font-family="Times,serif" font-size="14.00">Final Data for Review (n=1105)</text>
</g>
<!-- filter_unrelated_clusters_deep&#45;&gt;final_data -->
<g id="edge10" class="edge" data-name="filter_unrelated_clusters_deep-&gt;final_data">

<path fill="none" stroke="black" d="M430.9,-316.32C430.9,-280.24 430.9,-197.2 430.9,-153.19"/>
<polygon fill="black" stroke="black" points="434.4,-153.39 430.9,-143.39 427.4,-153.39 434.4,-153.39"/>
<text text-anchor="middle" x="452.35" y="-241.8" font-family="Times,serif" font-size="14.00">n=1055</text>
</g>
<!-- final_excluded_documents -->
<g id="node8" class="node" pointer-events="visible" data-name="final_excluded_documents">

<polygon fill="none" stroke="black" points="314.47,-141.6 85.32,-141.6 85.32,-105.6 314.47,-105.6 314.47,-141.6"/>
<text text-anchor="middle" x="199.9" y="-119.4" font-family="Times,serif" font-size="14.00">Finally excluded documents (n=2332)</text>
</g>
<!-- excluded_documents&#45;&gt;final_excluded_documents -->
<g id="edge12" class="edge" data-name="excluded_documents-&gt;final_excluded_documents">

<path fill="none" stroke="black" d="M208.47,-227.75C206.85,-208.26 204.19,-176.24 202.26,-153.03"/>
<polygon fill="black" stroke="black" points="205.77,-153 201.45,-143.33 198.79,-153.58 205.77,-153"/>
<text text-anchor="middle" x="229.35" y="-180.6" font-family="Times,serif" font-size="14.00">n=2332</text>
</g>
<!-- excluded_documents&#45;&gt;final_data -->
<g id="edge13" class="edge" data-name="excluded_documents-&gt;final_data">

<path fill="none" stroke="black" d="M233.73,-227.53C263.75,-205.72 313.85,-170 334.1,-159.6 343.66,-154.69 354.06,-150.16 364.39,-146.09"/>
<polygon fill="black" stroke="black" points="365.57,-149.39 373.67,-142.57 363.08,-142.85 365.57,-149.39"/>
<text text-anchor="middle" x="375.3" y="-197.4" font-family="Times,serif" font-size="14.00">n=50</text>
<text text-anchor="middle" x="375.3" y="-180.6" font-family="Times,serif" font-size="14.00">re-added after</text>
<text text-anchor="middle" x="375.3" y="-163.8" font-family="Times,serif" font-size="14.00">manual review</text>
</g>
<!-- in_paper -->
<g id="node10" class="node" pointer-events="visible" data-name="in_paper">

<polygon fill="none" stroke="black" points="478.45,-36 383.35,-36 383.35,0 478.45,0 478.45,-36"/>
<text text-anchor="middle" x="430.9" y="-13.8" font-family="Times,serif" font-size="14.00">Cited (n=223)</text>
</g>
<!-- final_data&#45;&gt;in_paper -->
<g id="edge14" class="edge" data-name="final_data-&gt;in_paper">

<path fill="none" stroke="black" d="M430.9,-105.49C430.9,-89.84 430.9,-66.37 430.9,-47.82"/>
<polygon fill="black" stroke="black" points="434.4,-47.99 430.9,-37.99 427.4,-47.99 434.4,-47.99"/>
<text text-anchor="middle" x="472.3" y="-75" font-family="Times,serif" font-size="14.00">Selected based</text>
<text text-anchor="middle" x="472.3" y="-58.2" font-family="Times,serif" font-size="14.00">on relevance</text>
</g>
</g>
</svg>