<?xml version="1.0" standalone="no"?>
<svg xmlns="http://www.w3.org/2000/svg" xmlns:xlink="http://www.w3.org/1999/xlink" width="396pt" height="472pt" viewBox="0.00 0.00 396.30 472.20">
<g id="graph0" class="graph" transform="translate(29.327241166446967,411.9124298244991) scale(0.8705505680916723)" data-name="G">

<polygon fill="white" stroke="none" points="-4,4 -4,-468.2 392.3,-468.2 392.3,4 -4,4"/>
<!-- load_data -->
<g id="node1" class="node" pointer-events="visible" data-name="load_data">

<polygon fill="none" stroke="black" points="388.19,-464.2 166.6,-464.2 166.6,-428.2 388.19,-428.2 388.19,-464.2"/>
<text text-anchor="middle" x="277.4" y="-442" font-family="Times,serif" font-size="14.00">Download from OpenAlex (n=3456)</text>
</g>
<!-- filter_unconnected_documents -->
<g id="node2" class="node" pointer-events="visible" data-name="filter_unconnected_documents">

<polygon fill="none" stroke="black" points="377.67,-391.2 177.13,-391.2 177.13,-355.2 377.67,-355.2 377.67,-391.2"/>
<text text-anchor="middle" x="277.4" y="-369" font-family="Times,serif" font-size="14.00">Exclude unconnected documents</text>
</g>
<!-- load_data&#45;&gt;filter_unconnected_documents -->
<g id="edge1" class="edge" data-name="load_data-&gt;filter_unconnected_documents">

<path fill="none" stroke="black" d="M277.4,-428.01C277.4,-420.43 277.4,-411.3 277.4,-402.74"/>
<polygon fill="black" stroke="black" points="280.9,-402.74 277.4,-392.74 273.9,-402.74 280.9,-402.74"/>
</g>
<!-- filter_clusters -->
<g id="node3" class="node" pointer-events="visible" data-name="filter_clusters">

<polygon fill="none" stroke="black" points="298.36,-302.4 156.43,-302.4 156.43,-266.4 298.36,-266.4 298.36,-302.4"/>
<text text-anchor="middle" x="227.4" y="-280.2" font-family="Times,serif" font-size="14.00">Exclude small clusters</text>
</g>
<!-- filter_unconnected_documents&#45;&gt;filter_clusters -->
<g id="edge2" class="edge" data-name="filter_unconnected_documents-&gt;filter_clusters">

<path fill="none" stroke="black" d="M267.52,-355.05C260.51,-342.89 250.97,-326.31 242.94,-312.38"/>
<polygon fill="black" stroke="black" points="246.21,-311.04 238.18,-304.12 240.14,-314.53 246.21,-311.04"/>
<text text-anchor="middle" x="277.85" y="-324.6" font-family="Times,serif" font-size="14.00">n=1737</text>
</g>
<!-- excluded_documents -->
<g id="node6" class="node" pointer-events="visible" data-name="excluded_documents">

<polygon fill="none" stroke="black" points="372.64,-36 184.15,-36 184.15,0 372.64,0 372.64,-36"/>
<text text-anchor="middle" x="278.4" y="-13.8" font-family="Times,serif" font-size="14.00">Excluded documents (n=2365)</text>
</g>
<!-- filter_unconnected_documents&#45;&gt;excluded_documents -->
<g id="edge3" class="edge" data-name="filter_unconnected_documents-&gt;excluded_documents">

<path fill="none" stroke="black" d="M294.26,-354.85C308.44,-338.38 326.4,-312.22 326.4,-285.4 326.4,-285.4 326.4,-285.4 326.4,-105.8 326.4,-83.49 314.1,-61.53 301.96,-45.28"/>
<polygon fill="black" stroke="black" points="304.82,-43.25 295.86,-37.59 299.33,-47.6 304.82,-43.25"/>
<text text-anchor="middle" x="347.85" y="-191.4" font-family="Times,serif" font-size="14.00">n=1719</text>
</g>
<!-- filter_low_links -->
<g id="node4" class="node" pointer-events="visible" data-name="filter_low_links">

<polygon fill="none" stroke="black" points="252.7,-213.6 0.1,-213.6 0.1,-177.6 252.7,-177.6 252.7,-213.6"/>
<text text-anchor="middle" x="126.4" y="-191.4" font-family="Times,serif" font-size="14.00">Exclude documents with low link strength</text>
</g>
<!-- filter_clusters&#45;&gt;filter_low_links -->
<g id="edge4" class="edge" data-name="filter_clusters-&gt;filter_low_links">

<path fill="none" stroke="black" d="M207.44,-266.25C192.46,-253.38 171.74,-235.57 155,-221.18"/>
<polygon fill="black" stroke="black" points="157.67,-218.86 147.8,-215 153.11,-224.17 157.67,-218.86"/>
<text text-anchor="middle" x="206.85" y="-235.8" font-family="Times,serif" font-size="14.00">n=1708</text>
</g>
<!-- filter_clusters&#45;&gt;excluded_documents -->
<g id="edge9" class="edge" data-name="filter_clusters-&gt;excluded_documents">

<path fill="none" stroke="black" d="M238.09,-266.04C245.97,-252.33 256.18,-232.44 261.4,-213.6 277.29,-156.24 279.38,-86.07 279.13,-47.61"/>
<polygon fill="black" stroke="black" points="282.63,-47.76 279,-37.8 275.63,-47.85 282.63,-47.76"/>
<text text-anchor="middle" x="287.85" y="-147" font-family="Times,serif" font-size="14.00">n=29</text>
</g>
<!-- filter_unrelated_clusters -->
<g id="node5" class="node" pointer-events="visible" data-name="filter_unrelated_clusters">

<polygon fill="none" stroke="black" points="180.12,-124.8 16.68,-124.8 16.68,-88.8 180.12,-88.8 180.12,-124.8"/>
<text text-anchor="middle" x="98.4" y="-102.6" font-family="Times,serif" font-size="14.00">Exclude unrelated clusters</text>
</g>
<!-- filter_low_links&#45;&gt;filter_unrelated_clusters -->
<g id="edge7" class="edge" data-name="filter_low_links-&gt;filter_unrelated_clusters">

<path fill="none" stroke="black" d="M120.87,-177.45C117.06,-165.64 111.91,-149.67 107.5,-136.01"/>
<polygon fill="black" stroke="black" points="110.88,-135.09 104.48,-126.65 104.22,-137.24 110.88,-135.09"/>
<text text-anchor="middle" x="136.85" y="-147" font-family="Times,serif" font-size="14.00">n=1484</text>
</g>
<!-- filter_low_links&#45;&gt;excluded_documents -->
<g id="edge5" class="edge" data-name="filter_low_links-&gt;excluded_documents">

<path fill="none" stroke="black" d="M145.1,-177.17C150.79,-171.68 156.96,-165.5 162.4,-159.6 197.66,-121.34 235.48,-74.23 258.02,-45.42"/>
<polygon fill="black" stroke="black" points="260.74,-47.62 264.12,-37.58 255.22,-43.32 260.74,-47.62"/>
<text text-anchor="middle" x="239.35" y="-102.6" font-family="Times,serif" font-size="14.00">n=224</text>
</g>
<!-- filter_unrelated_clusters&#45;&gt;excluded_documents -->
<g id="edge8" class="edge" data-name="filter_unrelated_clusters-&gt;excluded_documents">

<path fill="none" stroke="black" d="M121.01,-88.31C139.83,-73.79 163.96,-55.31 166.5,-54 176.64,-48.76 187.71,-44.14 198.81,-40.11"/>
<polygon fill="black" stroke="black" points="199.7,-43.51 208.01,-36.93 197.41,-36.9 199.7,-43.51"/>
<text text-anchor="middle" x="184.35" y="-58.2" font-family="Times,serif" font-size="14.00">n=393</text>
</g>
<!-- final_data -->
<g id="node7" class="node" pointer-events="visible" data-name="final_data">

<polygon fill="none" stroke="black" points="163.83,-36 32.97,-36 32.97,0 163.83,0 163.83,-36"/>
<text text-anchor="middle" x="98.4" y="-13.8" font-family="Times,serif" font-size="14.00">Final Data (n=1091)</text>
</g>
<!-- filter_unrelated_clusters&#45;&gt;final_data -->
<g id="edge6" class="edge" data-name="filter_unrelated_clusters-&gt;final_data">

<path fill="none" stroke="black" d="M98.4,-88.65C98.4,-76.96 98.4,-61.19 98.4,-47.62"/>
<polygon fill="black" stroke="black" points="101.9,-47.92 98.4,-37.92 94.9,-47.92 101.9,-47.92"/>
<text text-anchor="middle" x="119.85" y="-58.2" font-family="Times,serif" font-size="14.00">n=1091</text>
</g>
</g>
</svg>